<svg xmlns="http://www.w3.org/2000/svg" xmlns:xlink="http://www.w3.org/1999/xlink" viewBox="0 0 451.99 96.85"><defs><style>.cls-1,.cls-5{fill:none;}.cls-2{fill:#006f70;}.cls-3{font-size:10px;font-family:Tahoma-Bold, Tahoma;font-weight:700;letter-spacing:-0.01em;}.cls-3,.cls-6{fill:#fff;}.cls-4{font-size:8px;letter-spacing:-0.01em;}.cls-5{stroke:#fff;stroke-width:0.57px;}.cls-7{clip-path:url(#clip-path);}</style><clipPath id="clip-path"><rect class="cls-1" x="260.3" y="11.29" width="93.21" height="18.74"/></clipPath></defs><g id="Layer_2" data-name="Layer 2"><g id="Layer_1-2" data-name="Layer 1"><rect class="cls-2" width="451.99" height="96.85"/><text class="cls-3" transform="translate(13.6 61.84)">Close and Distant Reading of American Civil Rigts <tspan x="0" y="12">Demonstrations and Political Violence</tspan><tspan class="cls-4"><tspan x="0" y="21.6">Project Proposal</tspan></tspan></text><line class="cls-5" x1="355.97" y1="11.47" x2="355.97" y2="29.54"/><path class="cls-6" d="M358.8,11.58h1.69a2.16,2.16,0,0,1,2.31,2.16h0a2.17,2.17,0,0,1-2.31,2.17H358.8Zm.95.86v2.62h.74a1.24,1.24,0,0,0,1.31-1.3h0a1.25,1.25,0,0,0-1.31-1.31Z"/><path class="cls-6" d="M363.53,11.39h1v.84h-1Zm0,1.2h.94v3.33h-.94Z"/><path class="cls-6" d="M365,12.59h1l.75,2.23.75-2.23h1L367.12,16h-.86Z"/><path class="cls-6" d="M368.91,11.39h1v.84h-1Zm0,1.2h.94v3.33h-.94Z"/><path class="cls-6" d="M370.43,15.48l.4-.62a1.9,1.9,0,0,0,1.05.4c.27,0,.4-.1.4-.25h0c0-.21-.33-.28-.69-.39s-1-.35-1-1h0a1.09,1.09,0,0,1,1.22-1.06,2.33,2.33,0,0,1,1.24.39l-.36.65a2,2,0,0,0-.9-.31c-.23,0-.35.1-.35.23h0c0,.19.32.28.68.4s1,.38,1,1h0c0,.74-.56,1.07-1.28,1.07A2.3,2.3,0,0,1,370.43,15.48Z"/><path class="cls-6" d="M373.74,11.39h1v.84h-1Zm0,1.2h.95v3.33h-.95Z"/><path class="cls-6" d="M375.35,14.28v0a1.75,1.75,0,0,1,1.81-1.73A1.73,1.73,0,0,1,379,14.25h0a1.8,1.8,0,0,1-3.6,0Zm2.67,0v0a.87.87,0,0,0-.87-.91.85.85,0,0,0-.87.9h0a.88.88,0,0,0,.88.92A.85.85,0,0,0,378,14.28Z"/><path class="cls-6" d="M379.55,12.59h.95v.48a1.16,1.16,0,0,1,1-.54,1.09,1.09,0,0,1,1.13,1.24v2.15h-.94V14.06c0-.44-.22-.67-.58-.67s-.59.23-.59.67v1.86h-.94V12.59Z"/><path class="cls-6" d="M385,14.28v0a1.8,1.8,0,0,1,3.6,0h0A1.75,1.75,0,0,1,386.75,16,1.73,1.73,0,0,1,385,14.28Zm2.67,0v0a.88.88,0,0,0-.88-.91.85.85,0,0,0-.86.9h0a.88.88,0,0,0,.87.92A.85.85,0,0,0,387.63,14.28Z"/><path class="cls-6" d="M389.32,13.4h-.39v-.78h.39v-.21a1.06,1.06,0,0,1,.27-.8,1,1,0,0,1,.76-.26,2,2,0,0,1,.67.09v.78a1.22,1.22,0,0,0-.43-.08c-.22,0-.34.11-.34.36v.13H391v.77h-.75v2.52h-.94V13.4Z"/><path class="cls-6" d="M393.07,15V13.4h-.39v-.81h.39v-.85H394v.85h.78v.81H394v1.42c0,.22.09.33.3.33a1,1,0,0,0,.46-.12v.76A1.41,1.41,0,0,1,394,16C393.46,16,393.07,15.75,393.07,15Z"/><path class="cls-6" d="M395.48,11.39h.94v1.68a1.19,1.19,0,0,1,1-.54,1.09,1.09,0,0,1,1.13,1.24v2.15h-.94V14.06c0-.44-.22-.67-.58-.67s-.59.23-.59.67v1.86h-.94V11.39Z"/><path class="cls-6" d="M399.14,14.28v0a1.66,1.66,0,0,1,1.65-1.73,1.62,1.62,0,0,1,1.62,1.81,2.5,2.5,0,0,1,0,.25h-2.31a.77.77,0,0,0,.81.65,1.1,1.1,0,0,0,.81-.34l.54.47a1.75,1.75,0,0,1-3.1-1.09Zm2.35-.28c-.06-.43-.31-.71-.7-.71a.73.73,0,0,0-.72.71Z"/><path class="cls-6" d="M404.76,11.58h.95V13.3h1.76V11.58h1v4.34h-1V14.18h-1.76v1.74h-.95Z"/><path class="cls-6" d="M409.3,14.75V12.59h.95v1.86c0,.45.21.68.57.68s.59-.23.59-.68V12.59h.94v3.33h-.94v-.47a1.18,1.18,0,0,1-1,.53A1.09,1.09,0,0,1,409.3,14.75Z"/><path class="cls-6" d="M413.15,12.59h.94v.48a1.21,1.21,0,0,1,1-.54,1,1,0,0,1,.93.53,1.39,1.39,0,0,1,1.09-.53,1.06,1.06,0,0,1,1.13,1.22v2.17h-.94V14.06c0-.44-.2-.67-.56-.67s-.57.23-.57.67v1.86h-.94V14.06c0-.44-.2-.67-.55-.67s-.57.23-.57.67v1.86h-1V12.59Z"/><path class="cls-6" d="M418.8,15v0c0-.72.56-1.06,1.34-1.06A2.41,2.41,0,0,1,421,14V14c0-.39-.24-.61-.72-.61a2.51,2.51,0,0,0-.92.18l-.23-.72a2.92,2.92,0,0,1,1.29-.26,1.51,1.51,0,0,1,1.12.37,1.44,1.44,0,0,1,.36,1.06v1.93H421v-.36a1.27,1.27,0,0,1-1,.42A1,1,0,0,1,418.8,15Zm2.17-.22v-.17a1.52,1.52,0,0,0-.6-.12c-.41,0-.65.16-.65.46h0c0,.25.21.4.51.4S421,15.09,421,14.75Z"/><path class="cls-6" d="M422.63,12.59h.95v.48a1.16,1.16,0,0,1,1-.54,1.09,1.09,0,0,1,1.13,1.24v2.15h-.94V14.06c0-.44-.21-.67-.57-.67s-.59.23-.59.67v1.86h-.95V12.59Z"/><path class="cls-6" d="M426.47,11.39h1v.84h-1Zm0,1.2h.94v3.33h-.94Z"/><path class="cls-6" d="M428.44,15V13.4H428v-.81h.4v-.85h.94v.85h.78v.81h-.78v1.42c0,.22.1.33.31.33a1,1,0,0,0,.46-.12v.76a1.47,1.47,0,0,1-.74.19C428.83,16,428.44,15.75,428.44,15Z"/><path class="cls-6" d="M430.83,11.39h1v.84h-1Zm0,1.2h.94v3.33h-.94Z"/><path class="cls-6" d="M432.44,14.28v0a1.65,1.65,0,0,1,1.64-1.73,1.62,1.62,0,0,1,1.62,1.81,2.26,2.26,0,0,1,0,.25h-2.32a.78.78,0,0,0,.82.65,1.09,1.09,0,0,0,.8-.34l.54.47a1.65,1.65,0,0,1-1.36.63A1.67,1.67,0,0,1,432.44,14.28Zm2.34-.28a.7.7,0,0,0-.7-.71c-.39,0-.64.28-.72.71Z"/><path class="cls-6" d="M436.05,15.48l.4-.62a1.9,1.9,0,0,0,1.05.4c.28,0,.4-.1.4-.25h0c0-.21-.32-.28-.69-.39s-1-.35-1-1h0a1.08,1.08,0,0,1,1.21-1.06,2.27,2.27,0,0,1,1.24.39l-.35.65a2,2,0,0,0-.91-.31c-.22,0-.34.1-.34.23h0c0,.19.31.28.67.4s1,.38,1,1h0c0,.74-.55,1.07-1.27,1.07A2.31,2.31,0,0,1,436.05,15.48Z"/><path class="cls-6" d="M358.89,18.42h1.51a2.17,2.17,0,0,1,2.31,2.16h0a2.18,2.18,0,0,1-2.31,2.18h-1.51Zm.49.45v3.44h1a1.68,1.68,0,0,0,1.8-1.71h0a1.69,1.69,0,0,0-1.8-1.72Z"/><path class="cls-6" d="M363.67,18.33h.55v.52h-.55Zm0,1.22h.47v3.22h-.47Z"/><path class="cls-6" d="M365.26,23.32l.21-.37a2.05,2.05,0,0,0,1.24.41,1.05,1.05,0,0,0,1.17-1.14v-.38a1.53,1.53,0,0,1-1.26.68A1.49,1.49,0,0,1,365.11,21h0a1.52,1.52,0,0,1,2.76-.87v-.58h.48v2.66a1.54,1.54,0,0,1-.41,1.13,1.69,1.69,0,0,1-1.23.43A2.49,2.49,0,0,1,365.26,23.32ZM367.89,21v0a1.12,1.12,0,0,0-1.18-1.08A1.06,1.06,0,0,0,365.6,21h0a1.08,1.08,0,0,0,1.11,1.09A1.13,1.13,0,0,0,367.89,21Z"/><path class="cls-6" d="M369.43,18.33H370v.52h-.54Zm0,1.22h.47v3.22h-.47Z"/><path class="cls-6" d="M371.21,21.91V20h-.44v-.43h.44v-1h.48v1h1V20h-1v1.87a.48.48,0,0,0,.54.54.94.94,0,0,0,.47-.12v.41a1.18,1.18,0,0,1-.58.14A.82.82,0,0,1,371.21,21.91Z"/><path class="cls-6" d="M373.31,21.83h0c0-.68.56-1,1.37-1a3.47,3.47,0,0,1,1,.14v-.11c0-.58-.36-.88-1-.88a2.17,2.17,0,0,0-1,.24l-.15-.39a2.72,2.72,0,0,1,1.17-.27,1.4,1.4,0,0,1,1,.36,1.23,1.23,0,0,1,.33.93v2h-.46v-.48a1.41,1.41,0,0,1-1.16.55A1.08,1.08,0,0,1,373.31,21.83Zm2.37-.24v-.31a3.35,3.35,0,0,0-.95-.14c-.6,0-.94.26-.94.66v0c0,.4.38.63.81.63A1,1,0,0,0,375.68,21.59Z"/><path class="cls-6" d="M377.19,18.23h.48v4.54h-.48Z"/><path class="cls-6" d="M380.43,22.13l.31-.36a2.06,2.06,0,0,0,1.49.62c.58,0,1-.31,1-.74v0c0-.4-.22-.63-1.13-.82s-1.46-.54-1.46-1.26h0A1.28,1.28,0,0,1,382,18.36a2.28,2.28,0,0,1,1.53.53l-.28.38A1.92,1.92,0,0,0,382,18.8c-.56,0-.92.31-.92.7h0c0,.41.22.64,1.18.85s1.41.56,1.41,1.22v0c0,.74-.62,1.23-1.48,1.23A2.53,2.53,0,0,1,380.43,22.13Z"/><path class="cls-6" d="M384.78,21.91V20h-.45v-.43h.45v-1h.47v1h1V20h-1v1.87a.48.48,0,0,0,.54.54.91.91,0,0,0,.47-.12v.41a1.18,1.18,0,0,1-.58.14A.81.81,0,0,1,384.78,21.91Z"/><path class="cls-6" d="M387.07,21.55v-2h.47v1.88a.86.86,0,0,0,.89,1,1,1,0,0,0,1-1V19.55h.47v3.22h-.47v-.56a1.23,1.23,0,0,1-1.1.62A1.17,1.17,0,0,1,387.07,21.55Z"/><path class="cls-6" d="M390.75,21.17h0a1.57,1.57,0,0,1,1.54-1.67,1.43,1.43,0,0,1,1.22.68V18.23H394v4.54h-.48v-.65a1.43,1.43,0,0,1-1.22.71A1.56,1.56,0,0,1,390.75,21.17Zm2.78,0h0a1.19,1.19,0,0,0-1.16-1.24,1.13,1.13,0,0,0-1.13,1.24h0a1.17,1.17,0,0,0,1.13,1.25A1.21,1.21,0,0,0,393.53,21.16Z"/><path class="cls-6" d="M395.07,18.33h.55v.52h-.55Zm0,1.22h.48v3.22h-.48Z"/><path class="cls-6" d="M396.49,21.17h0A1.58,1.58,0,0,1,398,19.49a1.53,1.53,0,0,1,1.5,1.69.86.86,0,0,1,0,.16H397a1.12,1.12,0,0,0,1.13,1.08,1.35,1.35,0,0,0,1-.45l.29.27a1.67,1.67,0,0,1-1.32.6A1.6,1.6,0,0,1,396.49,21.17ZM399,21a1.05,1.05,0,0,0-1-1.09A1.12,1.12,0,0,0,397,21Z"/><path class="cls-6" d="M400.09,22.35l.25-.34a1.86,1.86,0,0,0,1.11.41c.38,0,.66-.2.66-.51h0c0-.32-.38-.45-.8-.56s-1.06-.32-1.06-.91h0a1,1,0,0,1,1.09-.92,2.19,2.19,0,0,1,1.16.35l-.22.36a1.84,1.84,0,0,0-.95-.31c-.38,0-.62.2-.62.47h0c0,.3.4.42.83.55s1,.35,1,.92h0a1,1,0,0,1-1.15,1A2.17,2.17,0,0,1,400.09,22.35Z"/><path class="cls-6" d="M405.11,21.18v0a1.66,1.66,0,0,1,1.68-1.67,1.65,1.65,0,0,1,1.67,1.66h0a1.68,1.68,0,0,1-3.35,0Zm2.86,0v0a1.21,1.21,0,0,0-1.19-1.25,1.18,1.18,0,0,0-1.17,1.24h0a1.2,1.2,0,0,0,1.18,1.25A1.18,1.18,0,0,0,408,21.18Z"/><path class="cls-6" d="M409.5,20h-.44v-.42h.44v-.28a1.11,1.11,0,0,1,.28-.82.91.91,0,0,1,.69-.25,1.41,1.41,0,0,1,.53.08v.41a1.65,1.65,0,0,0-.47-.08c-.37,0-.56.23-.56.69v.26h1V20h-1v2.78h-.48V20Z"/><path class="cls-6" d="M413.54,18.42H414v3.89h2.45v.46h-2.94V18.42Z"/><path class="cls-6" d="M417.06,21.83h0c0-.68.56-1,1.37-1a3.47,3.47,0,0,1,1,.14v-.11c0-.58-.36-.88-1-.88a2.17,2.17,0,0,0-1,.24l-.15-.39a2.72,2.72,0,0,1,1.17-.27,1.41,1.41,0,0,1,1,.36,1.23,1.23,0,0,1,.33.93v2h-.46v-.48a1.42,1.42,0,0,1-1.16.55A1.08,1.08,0,0,1,417.06,21.83Zm2.36-.24v-.31a3.22,3.22,0,0,0-.94-.14c-.6,0-.94.26-.94.66v0c0,.4.37.63.81.63A1,1,0,0,0,419.42,21.59Z"/><path class="cls-6" d="M420.89,19.55h.48v.56a1.23,1.23,0,0,1,1.1-.62,1.17,1.17,0,0,1,1.23,1.28v2h-.48V20.89a.85.85,0,0,0-.89-1,.94.94,0,0,0-1,1v1.84h-.48V19.55Z"/><path class="cls-6" d="M424.68,23.32l.22-.37a2,2,0,0,0,1.23.41,1.05,1.05,0,0,0,1.17-1.14v-.38a1.53,1.53,0,0,1-1.26.68A1.49,1.49,0,0,1,424.53,21h0a1.52,1.52,0,0,1,2.76-.87v-.58h.48v2.66a1.54,1.54,0,0,1-.41,1.13,1.67,1.67,0,0,1-1.22.43A2.5,2.5,0,0,1,424.68,23.32ZM427.31,21v0a1.12,1.12,0,0,0-1.18-1.08A1.06,1.06,0,0,0,425,21h0a1.08,1.08,0,0,0,1.11,1.09A1.13,1.13,0,0,0,427.31,21Z"/><path class="cls-6" d="M428.79,21.55v-2h.47v1.88a.86.86,0,0,0,.89,1,1,1,0,0,0,1-1V19.55h.48v3.22h-.48v-.56a1.21,1.21,0,0,1-1.09.62A1.17,1.17,0,0,1,428.79,21.55Z"/><path class="cls-6" d="M432.42,21.83h0c0-.68.56-1,1.37-1a3.34,3.34,0,0,1,1,.14v-.11c0-.58-.35-.88-.95-.88a2.22,2.22,0,0,0-1,.24l-.14-.39a2.69,2.69,0,0,1,1.17-.27,1.41,1.41,0,0,1,1,.36,1.27,1.27,0,0,1,.33.93v2h-.47v-.48a1.4,1.4,0,0,1-1.16.55A1.08,1.08,0,0,1,432.42,21.83Zm2.36-.24v-.31a3.27,3.27,0,0,0-.94-.14c-.6,0-.94.26-.94.66v0c0,.4.37.63.81.63A1,1,0,0,0,434.78,21.59Z"/><path class="cls-6" d="M436.21,23.32l.22-.37a2.05,2.05,0,0,0,1.24.41,1.05,1.05,0,0,0,1.16-1.14v-.38a1.53,1.53,0,0,1-1.26.68A1.49,1.49,0,0,1,436.06,21h0a1.53,1.53,0,0,1,2.77-.87v-.58h.47v2.66a1.58,1.58,0,0,1-.4,1.13,1.69,1.69,0,0,1-1.23.43A2.52,2.52,0,0,1,436.21,23.32ZM438.85,21v0a1.13,1.13,0,0,0-1.18-1.08A1.06,1.06,0,0,0,436.56,21h0a1.08,1.08,0,0,0,1.11,1.09A1.14,1.14,0,0,0,438.85,21Z"/><path class="cls-6" d="M440.17,21.17h0a1.58,1.58,0,0,1,1.54-1.67,1.53,1.53,0,0,1,1.5,1.69.86.86,0,0,1,0,.16h-2.54a1.11,1.11,0,0,0,1.13,1.08,1.33,1.33,0,0,0,1-.45l.29.27a1.67,1.67,0,0,1-1.32.6A1.6,1.6,0,0,1,440.17,21.17Zm2.55-.19a1.05,1.05,0,0,0-1-1.09,1.1,1.1,0,0,0-1,1.09Z"/><path class="cls-6" d="M443.8,23.31c.31-.12.44-.28.41-.54H444v-.66h.57v.56a.76.76,0,0,1-.69.85Z"/><path class="cls-6" d="M358.7,28.05h0a2.19,2.19,0,0,1,2.19-2.25,2.26,2.26,0,0,1,1.7.69l-.34.36a1.86,1.86,0,0,0-1.36-.6A1.7,1.7,0,0,0,359.21,28v0a1.71,1.71,0,0,0,1.68,1.79,1.87,1.87,0,0,0,1.4-.63l.32.32a2.24,2.24,0,0,1-1.73.77A2.17,2.17,0,0,1,358.7,28.05Z"/><path class="cls-6" d="M363.34,29V27h.48v1.88a.85.85,0,0,0,.88,1,1,1,0,0,0,1-1V27h.47v3.21h-.47v-.56a1.23,1.23,0,0,1-1.1.63A1.17,1.17,0,0,1,363.34,29Z"/><path class="cls-6" d="M367.25,25.68h.48v4.53h-.48Z"/><path class="cls-6" d="M369,29.36V27.42h-.45V27H369V26h.48v1h1v.42h-1V29.3c0,.39.21.53.54.53a1,1,0,0,0,.46-.11v.41a1.12,1.12,0,0,1-.57.14A.82.82,0,0,1,369,29.36Z"/><path class="cls-6" d="M371.3,29V27h.48v1.88a.85.85,0,0,0,.88,1,1,1,0,0,0,1-1V27h.47v3.21h-.47v-.56a1.23,1.23,0,0,1-1.1.63A1.17,1.17,0,0,1,371.3,29Z"/><path class="cls-6" d="M375.17,27h.48v.84a1.38,1.38,0,0,1,1.31-.9v.52h0a1.29,1.29,0,0,0-1.27,1.47v1.28h-.48V27Z"/><path class="cls-6" d="M377.49,28.61h0A1.59,1.59,0,0,1,379,26.93a1.53,1.53,0,0,1,1.49,1.7v.15H378a1.12,1.12,0,0,0,1.13,1.09,1.31,1.31,0,0,0,1-.46l.3.27a1.66,1.66,0,0,1-1.32.6A1.59,1.59,0,0,1,377.49,28.61Zm2.55-.18a1.06,1.06,0,0,0-1-1.09,1.1,1.1,0,0,0-1,1.09Z"/><path class="cls-6" d="M383,29.28h0c0-.68.56-1,1.37-1a3.9,3.9,0,0,1,1,.13v-.11c0-.57-.36-.87-1-.87a2.27,2.27,0,0,0-1,.23l-.15-.39a2.69,2.69,0,0,1,1.17-.26,1.45,1.45,0,0,1,1,.35,1.31,1.31,0,0,1,.33.94v2h-.46v-.49a1.41,1.41,0,0,1-1.17.56A1.08,1.08,0,0,1,383,29.28Zm2.36-.25v-.31a3.22,3.22,0,0,0-.94-.14c-.6,0-.94.26-.94.67h0c0,.4.37.64.81.64A1,1,0,0,0,385.34,29Z"/><path class="cls-6" d="M386.81,27h.48v.56a1.22,1.22,0,0,1,1.1-.63,1.18,1.18,0,0,1,1.23,1.29v2h-.48V28.33a.85.85,0,0,0-.89-1,.94.94,0,0,0-1,1v1.84h-.48Z"/><path class="cls-6" d="M390.45,28.61h0A1.57,1.57,0,0,1,392,26.93a1.44,1.44,0,0,1,1.23.68V25.68h.48v4.53h-.48v-.65a1.44,1.44,0,0,1-1.23.72A1.57,1.57,0,0,1,390.45,28.61Zm2.78,0h0a1.2,1.2,0,0,0-1.16-1.24,1.13,1.13,0,0,0-1.13,1.24h0a1.16,1.16,0,0,0,1.13,1.24A1.2,1.2,0,0,0,393.23,28.61Z"/><path class="cls-6" d="M396.7,25.86h.49V27.8h2.5V25.86h.49v4.35h-.49v-2h-2.5v2h-.49Z"/><path class="cls-6" d="M401.34,25.77h.55v.53h-.55Zm0,1.23h.48v3.21h-.48Z"/><path class="cls-6" d="M402.69,29.8l.25-.34a1.86,1.86,0,0,0,1.11.41c.38,0,.66-.2.66-.51h0c0-.33-.38-.45-.8-.57s-1.06-.32-1.06-.91h0a1,1,0,0,1,1.09-.92,2.2,2.2,0,0,1,1.16.36l-.22.36a1.76,1.76,0,0,0-.95-.31c-.38,0-.62.19-.62.46h0c0,.31.4.43.83.56s1,.34,1,.91v0c0,.61-.5,1-1.14,1A2.27,2.27,0,0,1,402.69,29.8Z"/><path class="cls-6" d="M406.22,29.36V27.42h-.45V27h.45V26h.48v1h1v.42h-1V29.3c0,.39.21.53.54.53a1,1,0,0,0,.46-.11v.41a1.12,1.12,0,0,1-.57.14A.82.82,0,0,1,406.22,29.36Z"/><path class="cls-6" d="M408.36,28.62h0a1.68,1.68,0,1,1,3.35,0h0A1.67,1.67,0,0,1,410,30.29,1.65,1.65,0,0,1,408.36,28.62Zm2.86,0h0a1.21,1.21,0,0,0-1.2-1.25,1.18,1.18,0,0,0-1.17,1.24h0A1.21,1.21,0,0,0,410,29.86,1.19,1.19,0,0,0,411.22,28.62Z"/><path class="cls-6" d="M412.57,27h.48v.84a1.37,1.37,0,0,1,1.31-.9v.52h0a1.29,1.29,0,0,0-1.27,1.47v1.28h-.48V27Z"/><path class="cls-6" d="M417.48,27H418l-1.35,3.32c-.27.66-.58.9-1.06.9a1.43,1.43,0,0,1-.69-.16l.16-.38a1,1,0,0,0,.51.12c.28,0,.46-.15.66-.6L414.76,27h.52l1.17,2.68Z"/><g class="cls-7"><path class="cls-6" d="M263.1,24.92a2.35,2.35,0,0,1-.43-.19,4,4,0,0,0,.34.93c.1.19.27-.27.09-.74Zm-.44-5.35,0,0c0,.43-1.22,1.05-1.74,1.33.8.27,1.56-.47,1.47-.29s-1.09,1.06-1.52,1.51c.34.09.64-.18.89-.38s.7-.79.63-.51c-.71.88-1.27,2.71-.93,2.82.2-.41,1-2.52,1.07-2.51a5.35,5.35,0,0,1-.08.92,6.1,6.1,0,0,0,.13,1.95c.09-.12.17-.11.31-.11s0-.05-.07-.17c-.23-.3,0-.71-.08-1s-.14,0-.18-.26a.65.65,0,0,1,.3-.09c.07-.82.35-1.23.25-.72a2.49,2.49,0,0,0-.1.71l.08,0s1.37-2.23.62-.68c-.1.2-.5.75-.5.75a.8.8,0,0,1,.21.31s1.83-2.39.59-.45c-.08.12-.45.52-.55.64s0,.45,0,.45a2.81,2.81,0,0,0,.58-.56c0-.25,0-.22.06-.46.06,0,.13.07.22.15s1.25-2.06.49-.49a3.2,3.2,0,0,1-.4.58,2.25,2.25,0,0,1,.22.43s1.61-2.32.63-.56c-.08.14-.56.72-.56.73l.23.58a1,1,0,0,1,.39-1,.63.63,0,0,0,.31.54c.06.06.18.28.19.09,0-.57-.15-.56-.28-.8,0-.06,0-.19,0-.19,1.16,0,1.12,1.12,1.32,1.12a1.08,1.08,0,0,1,0-.77.64.64,0,0,1-.17-.76,1.17,1.17,0,0,1,0-1.29c-.22-.32.06-.55,0-.75-.1-.7-.73-.49-.87-1.17-.1.12-.28.53-.2.67s.31.17.32.28,0,.18,0,.21-.2-.09-.32-.14-.84.31-.88,0,.08-.07.07-.28-.12-.06-.12-.34.24-.27.26-.35.41.3.63-.23c-.13,0-.38-.07-.36-.19.07-.33.07-1.14-.68-1-.27.06-1,.45-1.12,0-.27.48.26.4.42.39a.35.35,0,0,1-.34.07c-.42.28-2,1.26-2.41,1.51.6.28,1.52-.31,1.53-.31Zm1.45,4c-.21.21-.28.21-.27.3a1.07,1.07,0,0,0,.24.33c.12.1.17.19.08-.1a1.94,1.94,0,0,1-.05-.53ZM267.48,19a.39.39,0,0,0-.19-.21c-.38-.18-1.09.21-1.09-.35,0,0-.25.19-.14.39.27.45,1-.11,1.42.17Zm-5.64-5.62a.48.48,0,0,0,0,1,.48.48,0,0,0,0-1Zm0,1.92a.48.48,0,1,0,0,1,.48.48,0,0,0,0-1Zm.66-1.12h.55V13.6h-.55v.55Zm0,1.92h.55v-.55h-.55v.55Zm1.52-.6c-.25.15-.21.32-.12.43l.27-.21a.65.65,0,0,1-.15-.22Zm.58-.85a.49.49,0,0,0,0-.13.24.24,0,0,0-.11-.17s-.09.06-.13.12a.16.16,0,0,0,0,.16c.08.09.12.09.23,0Zm0,.27v-.22c-.08.05-.11.09-.19,0s.07.17.12.21l.07,0Zm1-1.54a2.26,2.26,0,0,0,.22-.22.26.26,0,0,1-.13-.14c-.12.1-.15.16-.09.36Zm.9.11-.18.14c0,.05.2.18.3.13s.13-.13.05-.18l-.17-.09Zm.07-.15.1-.08a.51.51,0,0,0-.23-.12s-.15,0-.11.09.08.11.16.12Zm.26,2.49a.48.48,0,0,0,0-.17c0-.05-.14-.14-.17-.14s0,0-.07.07a.21.21,0,0,0,0,.14.31.31,0,0,0,.23.1Zm-.2,0c-.14.11,0,.22.06.25l.15,0a.08.08,0,0,1,0-.05.49.49,0,0,1,0-.11c-.09,0-.13,0-.2,0Zm-.3.18-.08.09-.08.08c-.06-.06-.1-.08-.11-.12v-.4l-.12-.07c-.06,0-.1,0-.05,0l.19-.18h0l.12.18v.38c.05,0,0,0,.1.06Zm0-1.22a.38.38,0,0,1,.11-.39,1.4,1.4,0,0,1,.22-.17.56.56,0,0,0,.15.08s0,.1-.1.1-.19,0-.24,0,0,.23.06.3.19.11.22.06.09,0,0,0a.91.91,0,0,0-.13.19.34.34,0,0,1-.33-.24Zm.16,1.24a.34.34,0,0,1,.11-.25h0a.4.4,0,0,1,0-.22.63.63,0,0,1,.29-.2c.07,0,.17.14.24.21a3.86,3.86,0,0,0,0,.47s.09.06.11,0,.06,0,0,0-.13.11-.16.15a1.1,1.1,0,0,1-.18-.14.8.8,0,0,0-.3.16.25.25,0,0,1-.12-.23Zm.84-1.06-.08.09-.11.09c-.06-.06-.1-.08-.11-.13v-.41l-.09-.06c-.06.05-.11,0-.05,0l.18-.17h0l.08.12v.44a.23.23,0,0,0,.14.06Zm-.1-1.35c-.23,0-.17-.09-.13-.09.21,0,.16.1.13.09Zm0-.13c-.22,0-.17-.1-.13-.1.2,0,.17.1.13.1ZM267,14l.1.1v.1l-.08.07H267l-.06-.06v-.12L267,14Zm-.1-.83-.22.18h.05c.16.1.22.24.06.37a.68.68,0,0,1-.39.15.63.63,0,0,1-.32-.12,2.29,2.29,0,0,1,.24-.22c-.1-.08-.2-.19-.12-.31a.58.58,0,0,1,.4-.23c.16,0,.23.12.3.17Zm-.86.53c-.05,0-.14.11-.21.11a.43.43,0,0,1-.45-.46.47.47,0,0,1,.38-.42c.12,0,.15.11.21.17l-.36.35a.33.33,0,0,0,.38.18c.11,0,.14,0,.05.07Zm-.72-.49-.17.13s-.1-.11-.13-.13l-.07,0s0,.54,0,.6h-.18c0-.07,0-.47,0-.53s-.07-.08-.16-.11.15-.13.19-.17.13.06.17.11a1.13,1.13,0,0,0,.18-.12,1,1,0,0,0,.13.15s.08,0,0,0Zm-.76,1c.07,0,.13.14.19.2a3.7,3.7,0,0,0,0,.48s.07.05.09,0,0,0,0,0-.16.15-.19.18a.18.18,0,0,1-.07-.16.34.34,0,0,0-.21.14.24.24,0,0,1-.17-.21c0-.09.06-.15.13-.21l0,0a.47.47,0,0,1,0-.21.5.5,0,0,1,.3-.24Zm-.13-.22s0-.08-.11-.06a.67.67,0,0,1-.46,0c-.13-.09-.25-.11-.25-.42a.5.5,0,0,1,.27-.4.7.7,0,0,1,.43,0c.05,0,.08,0,.08,0s.06,0,.05,0v.44s-.06,0-.06,0a.81.81,0,0,0,0-.19.27.27,0,0,0-.47,0,.57.57,0,0,0-.07.24.59.59,0,0,0,.07.25.27.27,0,0,0,.47,0,.5.5,0,0,0,0-.19s.05,0,.05,0v.31a.12.12,0,0,0,0,.08c0,.06,0,.1-.05,0Zm-.8.41a.83.83,0,0,1,.36-.26l.14.18-.14.14s-.17-.24-.27-.09a.35.35,0,0,0,.07.45.37.37,0,0,0,.31.07,1.4,1.4,0,0,0-.12.18.35.35,0,0,1-.33-.1.42.42,0,0,1,0-.57Zm.07,1.41a.74.74,0,0,1,.43-.49.73.73,0,0,0,.19.3c-.1.08-.33.28-.42.34s.23.15.29.09.1,0,0,0a1.84,1.84,0,0,0-.17.25.56.56,0,0,1-.37-.52Zm.71-.26a1,1,0,0,0,.18-.17.9.9,0,0,0,.12.19c.06-.05.16-.11.21-.16s.11.06.12.22,0,.4,0,.45,0,0,0,0,.06,0,0,0l-.23.18a.33.33,0,0,1,0-.27c0-.08,0-.31,0-.36s-.08-.06-.11-.09l-.09.08c0,.06,0,.53,0,.59a.72.72,0,0,1-.15,0c0-.09,0-.45,0-.53a.37.37,0,0,0-.11-.18Zm.81-.55s-.14,0-.18-.08a1.27,1.27,0,0,1,0-.5s0-.05-.07-.06-.06,0,0-.06.23-.25.25-.3.05,0,0,0a.37.37,0,0,0,0,.27s.18,0,.21,0,0,.07,0,.07l-.26,0a1.39,1.39,0,0,0,.05.39s.07.07.1,0,.07,0,0,0-.07.08-.12.12Zm.1.54a.94.94,0,0,0,.2-.32s.05,0,0,0,0,.25,0,.29h.16s0,.07,0,.07l-.15,0a.72.72,0,0,0,0,.29c.05,0,.09.08.16,0s.06,0,0,0a.72.72,0,0,0-.14.19c0,.06-.14,0-.18,0s0-.28,0-.47c0,0-.12-.06-.06-.1Zm.84-.34a1.14,1.14,0,0,0-.15.16,1.83,1.83,0,0,1-.16-.13.34.34,0,0,0,.15-.14.22.22,0,0,0,.16.11Zm-.38-.91c.13,0,.33,0,.39.19s-.05.42-.21.43a2.33,2.33,0,0,1-.32,0s-.05,0-.06.05-.06.06-.07,0,0-.26,0-.32.06-.07.07,0a.33.33,0,0,0,.08.17.45.45,0,0,0,.38,0,.15.15,0,0,0,0-.24c-.07-.06-.39-.13-.44-.22s.07-.28.14-.32a.55.55,0,0,1,.29,0s.1,0,.1,0,0,0,.05,0a1.36,1.36,0,0,1,0,.2c0,.07,0,.07-.05,0s-.21-.2-.37-.1-.08.17,0,.2Zm.49,2.38a3.47,3.47,0,0,1,1.27.37V12.59a2.92,2.92,0,0,0-2.65-.08,4.86,4.86,0,0,1-1.66,0v4.53c1,.07,2.38-.46,3-.42Zm1.62,1.46c0,.06-.08.14-.08.14l.28-.14a2.44,2.44,0,0,0-.28-.14.2.2,0,0,1,.08.14Zm.4,0c-.25,0-.44.32-.72.2,0,0-.12,0-.11-.1a.6.6,0,0,0,.19.06.2.2,0,0,1,0-.29c-.17.11-.23.08-.23,0a.4.4,0,0,1,.44-.11,3.07,3.07,0,0,0,.45.2Zm-.7-.52a.4.4,0,0,0-.36.25c-.09.08-.08-.15-.26-.05s.12.33.08.34-.17-.29-.28-.3-.55.42-.16.71c0-.19.35-.4.47,0a.48.48,0,0,1,.54.32c.54.1.38.46.37.46a.46.46,0,0,0-.67-.19c-.08.06-.24.11-.31,0a.24.24,0,0,0,.26.2c.34-.1.42.22.17.31,0,.08.16.08.26,0a.79.79,0,0,0,.21-.22c.09.44-.46.48-.64.51,0,.09.08.11.2.14a.74.74,0,0,0-.67.9c.13,0,.33-.28.32-.12a1.27,1.27,0,0,0-.34,1.42c.1,0,.13-.16.17-.26s.23.09-.11.5c0,.11-.15.43.12.51.1-.12.08-.23.11-.35s.12.22.09.3c-.34.14-.3,1.19.1,1.76a1.88,1.88,0,0,1,0-1.36c.13-.33.4-1.06.4-1.06a3.34,3.34,0,0,1,.35,1.34c.22-.19.26-.39.43-.53.09.29.12.49.19.74a1.49,1.49,0,0,0,0-1.36c.06-.06.19.29.22.27s.08-.18,0-.51-.28-.52-.24-.54.13.32.25.34a5.51,5.51,0,0,0,.07-.75,1.22,1.22,0,0,0-.35-.55.66.66,0,0,1-.18-.46c.14.13.11.23.22.28a1,1,0,0,0-.12-.71c-.09-.13-.05-.12.05,0s.07.14.18.2c.24-.57,0-.69,0-.73s.19.27.34.15c-.24-.12-.24-.32-.26-.53s-.13-.22-.09-.26c.24.18.31,0,.31-.06s-.26,0-.28-.28c0-.13-.21-.19-.21-.19s.52,0,.42-.44a.34.34,0,0,1-.41.18.18.18,0,0,0,.13-.21c-.39.22-.69-.22-1.09-.16ZM271,13.5a1.29,1.29,0,0,0,.33.17.87.87,0,0,0,0-.18c0-.05-.17-.15-.19-.15s-.08.05-.12.11,0,0,0,.05Zm.19.48a.3.3,0,0,1,.14,0v-.23a1,1,0,0,1-.26-.11l0,0a.28.28,0,0,0,.08.36Zm0,.93a.8.8,0,0,0,.26.26.58.58,0,0,0,.09-.38c0-.1-.14-.21-.26-.25a.29.29,0,0,0-.09.37Zm-2.25.95c-.09.16,0,.19,0,.23l.15-.08s0-.09,0-.15-.13,0-.19,0Zm.19,0a.92.92,0,0,0,0-.18c0-.05-.1-.12-.13-.13s-.06,0-.1.08a.17.17,0,0,0,.24.23Zm.14.41c-.07-.05-.12-.06-.14-.14s-.21.16-.31.22a.35.35,0,0,1-.1-.24.5.5,0,0,1,.14-.27,0,0,0,0,1,0,0,.3.3,0,0,1,0-.19s.18-.24.29-.25.13.09.2.16,0,.35,0,.39.1.09.14.06.06,0,0,0l-.19.24Zm.37-.67s-.15-.06-.08-.1a.65.65,0,0,0,.27-.24c0-.05.07,0,0,0a.58.58,0,0,0,0,.22l.14,0s0,.08,0,.08h-.15a3.45,3.45,0,0,0,0,.45s.11.06.15,0,.07,0,0,0-.1.14-.16.16a.19.19,0,0,1-.19-.08c-.07-.09,0-.4,0-.59Zm.28-.56a.87.87,0,0,1-.22-.21c-.09.12-.12.22-.29.27a.6.6,0,0,0,.18-.45.27.27,0,0,0-.17-.27,1.46,1.46,0,0,1-.16.09s0,0,0,0a2.35,2.35,0,0,0,.3-.22c.08,0,.18.09.19.15a1.9,1.9,0,0,0,.2-.18.56.56,0,0,0,.26.19c-.11.18-.35.07-.38,0a.17.17,0,0,0,0,.19.62.62,0,0,0,.35.24,1.67,1.67,0,0,1-.23.23Zm.17.66c.07-.08.15-.14.19-.18a.42.42,0,0,1,.14.16c0,.1,0,.31,0,.39s.29.12.31,0,0-.24,0-.31-.12-.07-.18-.06l.19-.19a.8.8,0,0,1,.18.19,3.22,3.22,0,0,0,0,.44c0,.07,0,.07.07.11l-.14.11c-.05,0-.14-.1-.14-.17a1.92,1.92,0,0,1-.33.14c-.07-.07-.13-.09-.13-.18a2.44,2.44,0,0,0,0-.39.13.13,0,0,0-.14-.07Zm.93-.77a.57.57,0,0,1,.41-.52.43.43,0,0,1,.28.4.68.68,0,0,1-.11.34,1.43,1.43,0,0,0-.23.2c-.24,0-.36-.28-.35-.42Zm0,.9a2.43,2.43,0,0,0,.25-.2c.08.07.13.13.17.17a.81.81,0,0,0,.18-.12,1.07,1.07,0,0,1,.18.15s.09,0,.05,0l-.17.15a1,1,0,0,1-.18-.16s0,0-.07,0v.59a.56.56,0,0,1-.19,0c0-.07,0-.47,0-.54s-.14-.11-.22-.11ZM272,15l-.16,0c-.05,0,0-.07,0-.07l.13,0s0,.07,0,.07Zm0-.14-.15,0a0,0,0,0,1,0-.08l.14,0s0,.07,0,.07Zm-.37-.89-.18.19a.22.22,0,0,1-.1-.14.65.65,0,0,0-.29.16.48.48,0,0,1-.15-.29.46.46,0,0,1,.13-.28h0l-.08-.05a.08.08,0,0,1,0-.1s.15-.19.26-.21a.37.37,0,0,1,.29.13,3.32,3.32,0,0,0,0,.46l.13.12Zm-1.19.71a.31.31,0,0,0,.19.31.53.53,0,0,0,.24,0s0,0,.05,0,.05,0,0,0-.22.21-.28.25a.23.23,0,0,1-.22-.08c-.11-.14-.2-.19-.16-.46s.32-.33.39-.37.16.17.22.22a.24.24,0,0,1-.17.06c-.07,0-.12-.06-.17-.12a.32.32,0,0,0-.13.19Zm.39-1.44-.37,0a1.84,1.84,0,0,0,0,.46s0,.09.08.05.07,0,0,.06a2.14,2.14,0,0,1-.13.19c-.06,0-.13-.08-.16-.15a2.35,2.35,0,0,1-.06-.58s-.16-.07-.08-.1a.71.71,0,0,0,.3-.31s.07,0,.05,0a.31.31,0,0,0,0,.24h.34s0,.07,0,.07Zm-.79.52-.14.18h-.13a.67.67,0,0,1-.12-.17V13.3l-.16-.1s-.09,0-.06,0l.22-.19h.05l.14.14v.45a.3.3,0,0,0,.21.12Zm-.18-.89-.08.07h-.06l-.07-.06v-.13l.1-.09.11.1v.11Zm-.45,0a.25.25,0,0,0-.15.18c0,.08-.28.85-.31.9a5.15,5.15,0,0,0-.41-.93c-.07-.11-.14-.09-.21-.09s0-.06,0-.05l.61.06s0,0,0,.06-.1,0-.1.07a2.34,2.34,0,0,0,.19.44,1.51,1.51,0,0,0,.15-.53c0-.07,0-.09-.1-.09s-.06-.05,0-.06l.33,0c.06,0,.07,0,0,.06Zm-.94,1.38a.91.91,0,0,1,.52-.09c.05,0,.11,0,.11,0s0,0,0,0v.37s-.05,0-.05,0a.17.17,0,0,0,0-.12.39.39,0,0,0-.6,0c-.06.07-.08.2,0,.22a1.53,1.53,0,0,0,.37,0l.28-.06s.05,0,.05,0v.2s0,0-.05,0a1.3,1.3,0,0,0-.27,0,2,2,0,0,0-.38,0c-.06,0,0,.12,0,.19a.37.37,0,0,0,.58.05c0-.07,0-.08,0-.12s.05,0,.05,0,0,.29,0,.32,0,0,0,0,0-.06-.1,0a.83.83,0,0,1-.54,0c-.15-.09-.27-.11-.28-.43a.53.53,0,0,1,.3-.41Zm-.24,1h.22c0,.09,0,.76,0,.83a.08.08,0,0,0,.12.06s.06,0,0,0-.14.17-.18.21-.16-.11-.15-.17,0-.89,0-1Zm1,1.48a28.26,28.26,0,0,0,3.11.44V12.58a5.63,5.63,0,0,1-2.37-.22,3.28,3.28,0,0,0-2.13.24V17a2.28,2.28,0,0,1,1.39-.37Zm3.27-1.36v.86a2,2,0,0,0,1-.35.47.47,0,0,1,.51,0h0s-.08-.57-.55-.5c-.88.13-1-.05-1-.05ZM274,14.05a1,1,0,0,1,0,.12s0-.06,0-.12a.54.54,0,0,0-.57-.5,1.23,1.23,0,0,1-.94,0v.86c.22.07.83-.28,1.07-.39s.42,0,.43.06Zm-.59,9a13.9,13.9,0,0,0-.64-2.58c.56.7.75,2.21,1.13,3.52,0,0,.25.13.2-1.53a2.84,2.84,0,0,0-.31-1.09c-.33-.62-1-1.66-1-1.67s.55.77.89,1.12a2,2,0,0,0,.88.42c-.49-.95-1.68-1.85-1.56-2,.88.82,1.16.86,1.19.82l-.79-.77c-.22-.3-.52-.53-.48-.52.36.08-.18-.29-.59-.41-.08,0-.2,0-.2-.06s.1,0,.18-.06a.15.15,0,0,0,.12-.14.8.8,0,0,1-.46-.07,1.73,1.73,0,0,0-1-.19,1,1,0,0,0-.3.16c-.07,0-.24-.14-.49.16a.69.69,0,0,0-.18.28c0,.2,0,0,.06.2s-.07.23-.44.35a.17.17,0,0,0-.11.19.37.37,0,0,1,.36,0c.33.16.4-.09.61-.27,0,0-.06.22,0,.24.26,0,.17.25.14.27-.33.3-.19.41-.31.59a.55.55,0,0,1-.54.23c-.35,0,.46-.54-.31-.76.12.2.17.36-.1.52s-.09.6-.53.37c0,0,0,.37-.08.39.59.52.26.8.29,1.55.19.47,0,.7-.06.72a1.21,1.21,0,0,0,.26.76c.14.19,0,.48.13.69.14-.49.28-.28.32-1a.8.8,0,0,1,.41-.32c0,.41.15.77.12.94a1.47,1.47,0,0,1,.45,0,.27.27,0,0,1,.15.21,1.39,1.39,0,0,0-.29.17,1.48,1.48,0,0,0-.45.68,8.36,8.36,0,0,0,.77-.68,2.58,2.58,0,0,0,.12-.34,1.83,1.83,0,0,1-.48-.44c-.32-.62.5.38.52.29a1.29,1.29,0,0,1,.2-.42,1.27,1.27,0,0,1-.37-.45c-.46-.79.52.34.52.34.25-.15.26.05.29.26,0,0,.44.34.46.36a1.36,1.36,0,0,0,.26-.38,10.5,10.5,0,0,1-.92-.94c-1.09-1.88.88.83,1,.75a1.76,1.76,0,0,0,.07-.62,2.71,2.71,0,0,1-.61-.65c-.92-1.52.6.45.6.43,0-.32-.28-1.73-.1-1.3a5.23,5.23,0,0,1,.34,2,1.51,1.51,0,0,1,.68-.37Zm-1.72,1.49s-.14-.11-.15-.09l-.1.22c0,.08.08,0,.25-.13Zm-.06-.57c0,.13,0,.22,0,.36s.13.07.2.13a3,3,0,0,0,.27-.25s-.4-.34-.41-.33a.28.28,0,0,1,0,.09Zm1.18.79c.17-.15.26-.39.48-.46-.17-.15-.33.15-.41,0a1.31,1.31,0,0,0,.26-.71c0-.16.2-.31.24-.4a1.6,1.6,0,0,0-.75.47,2.79,2.79,0,0,1-1.65,1.41c-.07,0,.25-.23.34-.49a1.77,1.77,0,0,0,.09-1,1.06,1.06,0,0,0-.3.59c-.2.54-.31.6-.81.94-.06,0-.45.64-.95.66.05,0,0-.13.19-.24.56-.37.35-1.16,1.08-1.29-.37-.13-.61.22-.68.19.29-.41,0-.75.08-1.09a.45.45,0,0,0-.21.27c0,.6-.33.7-.36.95.06.43-.28.75-.53,1.05a.62.62,0,0,1,.33-.67c.17-.11,0-.45,0-.45-.07.37-.27.49-.4.5s.39-.51.33-1c0-.21-.08-.12-.12-.36-.44.49-.12.79-.57,1.35a2.9,2.9,0,0,0-.32.75c0-.7,0-.5.34-1.06s0-.9-.05-1.18a1.38,1.38,0,0,0-.52,1,1.57,1.57,0,0,1,0-.69,2,2,0,0,0-.14-1,3.3,3.3,0,0,0-.18,2.64c-.33-.53-.58-.55-.66-1,0-.22-.44-1.43-1.18-1.46.38.32.29.37.31.89-.24,1.32,1.6,1.45,1.48,2.14a2.78,2.78,0,0,0-1.22-.89c-.25-.21-.54-.3-.56-.61a1.15,1.15,0,0,0,0-.49c0-.21-.24-.09-.39-.53a.78.78,0,0,0-.18.83,1,1,0,0,1,0,.38,2,2,0,0,1-.33-.42,3.41,3.41,0,0,1-.36-.93c-.05-.12-.13-.28-.18-.28h0a2,2,0,0,0,.19,1.26s-.06.1-.11.12a.9.9,0,0,1-.62-.56.4.4,0,0,0-.08.49c-.58-.3,0-1.44-.82-1.4.21.22.08.5.06.76,0,.43.54.77.54.77-.61-.21-.73.07-.72.07a8.5,8.5,0,0,0,2.3.54c.19,0,.45.23.4.23a1,1,0,0,0-1.06.21c.31,0,.52.51,1,.22a1.79,1.79,0,0,1,2,.44c-.05.08-1-.59-1.73-.15a1.5,1.5,0,0,1-1.53-.35,2.27,2.27,0,0,0,1.34,1.1c.35,0,.79-.46,1.29-.43.81,0,.92.76.83.7s-.63-1.05-1.45.07a1.67,1.67,0,0,1,1.34.08c.06,0-.11.22-.23.36s-.42.59-.79.09c-.05-.07-.23-.53-1.38-.43a4.5,4.5,0,0,1,1.15.94c.61.6,1.52-.72,1.55-.58a1.18,1.18,0,0,0,.24.61c.2.4-.26.33-.51.23,0,0,.48.74.87.33s-.57-.81-.25-1.17c.18-.2.82.46,1.11.46.78.09.74-.66,1.16-.63a.62.62,0,0,0-.89-.08c-.26.3-.56.1-.77-.07a.43.43,0,0,0-.48-.12c-.08,0,.16-.29.48-.23a2.78,2.78,0,0,0,1.62-.22,4.72,4.72,0,0,0,.78-.74c-.11,0-.7.35-.9.45a1,1,0,0,1-1-.09c-.11,0-.08-.08.09-.14.6-.13,1-.65,1.57-.86s1.41-.09,1.94-.6Zm-.23,1a2.81,2.81,0,0,0,.45-1.09,1.34,1.34,0,0,1-.54.41c-.14.45-.07.92.09.68Zm2.14-3.72a8.13,8.13,0,0,1-7,7.6,8.22,8.22,0,0,1-7-7.6V12a69.67,69.67,0,0,1,14,0v10Zm.37.06V11.65a73.38,73.38,0,0,0-14.75,0V22.12a7.39,7.39,0,1,0,14.75,0ZM279,24.65a4.83,4.83,0,0,0,2.13,4.13,6.56,6.56,0,0,0,3.74,1,8.79,8.79,0,0,0,2.37-.35,3.21,3.21,0,0,1,.53-.15,5.56,5.56,0,0,0,.72-2.06.33.33,0,0,0-.39-.06,3.2,3.2,0,0,1-3.14,2.15c-2.46,0-4.46-1.74-4.46-4.9s2-4.56,4.25-4.56,2.85,1.17,3.08,2.19a.3.3,0,0,0,.4,0c-.12-.92-.19-1.86-.21-2.21a1,1,0,0,1-.42-.06,11.78,11.78,0,0,0-2.66-.36,6.45,6.45,0,0,0-4,1.28,5,5,0,0,0-1.89,4Zm4.26-13v0h0a.14.14,0,0,0-.12,0H283v0c-.08.14-.11.15-.45.15H280c-.28,0-.41,0-.44-.16h0a.11.11,0,0,0-.09,0,.18.18,0,0,0-.09,0h0v0a6.08,6.08,0,0,1-.24.93v0a.18.18,0,0,0,.23.06h0a1,1,0,0,1,.27-.42,1.19,1.19,0,0,1,.73-.14h.35c.14,0,.14,0,.14.15V15c0,.68,0,.71-.35.73l-.22,0h0a.15.15,0,0,0,0,.24H282a.14.14,0,0,0,.06-.12.11.11,0,0,0,0-.12l-.22,0c-.31,0-.33-.07-.33-.73V12.17a.38.38,0,0,1,0-.13H282a1.29,1.29,0,0,1,.7.14.8.8,0,0,1,.14.43h0a.13.13,0,0,0,.11.05.14.14,0,0,0,.13-.07h0v0a3.51,3.51,0,0,1,.09-.93ZM288.37,15V12.72c0-.66,0-.7.33-.74h.15a.14.14,0,0,0,0-.12.15.15,0,0,0-.06-.12h0l-.74,0-.75,0h0c-.06,0-.06.1-.07.12a.14.14,0,0,0,0,.12l.14,0c.32,0,.34.08.34.74v.72c0,.16,0,.16-.27.16H285.7c-.26,0-.26,0-.26-.16v-.72c0-.66,0-.7.33-.74h.14a.11.11,0,0,0,0-.12.15.15,0,0,0-.06-.12h0l-.73,0h-.8a.14.14,0,0,0-.07.12.14.14,0,0,0,.05.12h.18c.28,0,.33.08.33.74V15c0,.65,0,.68-.33.73l-.12,0h0a.18.18,0,0,0,0,.14.14.14,0,0,0,.06.1h.74l.8,0h0a.14.14,0,0,0,.06-.12.11.11,0,0,0,0-.12l-.2,0c-.3,0-.34-.06-.34-.73v-.89c0-.15,0-.15.26-.15h1.79c.27,0,.27,0,.27.15V15c0,.66,0,.68-.34.73l-.14,0h0a.15.15,0,0,0,0,.14.12.12,0,0,0,.06.1h0l.75,0,.76,0h0a.13.13,0,0,0,.06-.12.11.11,0,0,0,0-.12l-.17,0c-.32,0-.33-.07-.33-.73Zm5.23.09h0v0a.17.17,0,0,0-.15-.08l-.08,0,0,0a1.45,1.45,0,0,1-.42.58,1.79,1.79,0,0,1-.78.09c-.52,0-.66-.06-.72-.13s-.11-.29-.11-.61V14c0-.12,0-.12.16-.12h.36a2.51,2.51,0,0,1,.47,0c.09,0,.13.08.16.2l.06.25v0a.14.14,0,0,0,.11,0,.16.16,0,0,0,.13-.05v0h0c0-.06,0-.14,0-.23s0-.24,0-.37,0-.26,0-.38,0-.18,0-.25h0v0a.16.16,0,0,0-.13,0,.12.12,0,0,0-.11,0l-.06.28c0,.14-.07.16-.12.18a2.44,2.44,0,0,1-.52,0h-.36c-.16,0-.16,0-.16-.13V12.23c0-.2,0-.2.14-.2h.45a3.17,3.17,0,0,1,.6,0c.28.07.34.26.43.53v0h0a.12.12,0,0,0,.1,0,.17.17,0,0,0,.13,0v-.11a5.72,5.72,0,0,0-.09-.77l0,0h0a7.83,7.83,0,0,1-.83,0H291l-.74,0h0a.15.15,0,0,0-.06.12c0,.06,0,.1,0,.12l.12,0c.32,0,.34.08.34.74V15c0,.68,0,.71-.34.73l-.23,0h0a.18.18,0,0,0,0,.14.12.12,0,0,0,.06.1h3.14v0a4.88,4.88,0,0,0,.29-.89Zm.6,4.89c.09-.06.06-.33,0-.37-.64,0-1.15,0-1.74,0s-1.15,0-1.89,0c-.09,0-.12.31,0,.37l.39,0c.78.06.89.32.89,1.9V27.3c0,1.57,0,1.72-.87,1.87l-.26,0c-.09.09-.06.33,0,.37.59,0,1.1,0,1.74,0s1.1,0,1.91,0c.09,0,.12-.31,0-.37l-.44,0c-.84-.09-.91-.3-.91-1.87V25.18c0-.45,0-.48.75-.48h4.3c.72,0,.75,0,.75.48V27.3c0,1.57,0,1.72-.92,1.87l-.29,0c-.08.09-.06.33,0,.37.67,0,1.21,0,1.82,0s1.1,0,1.82,0c.09,0,.12-.31,0-.37l-.36,0c-.87-.1-.9-.3-.9-1.87V21.89c0-1.58,0-1.81.9-1.9l.31,0c.09-.06.06-.33,0-.37-.67,0-1.18,0-1.77,0s-1.12,0-1.82,0c-.09,0-.12.31,0,.37l.29,0c.89.09.92.32.92,1.9v1.73c0,.46,0,.48-.75.48h-4.3c-.72,0-.75,0-.75-.48V21.89c0-1.58,0-1.81.9-1.9l.28,0Zm7.2-8a.16.16,0,0,0,0-.13.12.12,0,0,0-.05-.1h0l-.66,0-.71,0h0a.09.09,0,0,0-.05.09.15.15,0,0,0,0,.13h0l.18,0a.36.36,0,0,1,.27.1,3.7,3.7,0,0,1,.12,1.27v.72c0,.74-.21,1.62-1.21,1.62-.83,0-1.22-.51-1.22-1.62V12.72c0-.67,0-.72.33-.74l.16,0h0a.16.16,0,0,0,0-.12.14.14,0,0,0-.06-.12h0l-.76,0-.78,0h0a.14.14,0,0,0-.06.12.13.13,0,0,0,0,.12h0l.17,0c.31,0,.33.07.33.74v1.47a1.83,1.83,0,0,0,.51,1.52,1.83,1.83,0,0,0,1.2.35,1.71,1.71,0,0,0,1.23-.47,2.17,2.17,0,0,0,.45-1.53v-.7a6.06,6.06,0,0,1,.08-1.26.35.35,0,0,1,.28-.12l.17,0ZM307,12a.15.15,0,0,0,0-.13.12.12,0,0,0-.06-.1h0l-.64,0-.74,0h0a.12.12,0,0,0-.08.1.15.15,0,0,0,.05.14h.13c.21,0,.32.06.35.11a3.62,3.62,0,0,1,.12,1.27v1.51c-.22-.22-.45-.47-.73-.79l-.87-1a7,7,0,0,1-1.05-1.35l0,0h0l-.28,0c-.11,0-.44,0-.7,0h0a.16.16,0,0,0,0,.24h.13a.6.6,0,0,1,.36.14.52.52,0,0,1,.13.42V14.4a5.77,5.77,0,0,1-.08,1.22s-.07.07-.24.09l-.18,0,0,0a.14.14,0,0,0,0,.12.16.16,0,0,0,0,.11h0c.22,0,.39,0,.65,0s.43,0,.73,0h0a.17.17,0,0,0,.06-.1.31.31,0,0,0,0-.13h0l-.21,0c-.15,0-.26,0-.28-.09a4.08,4.08,0,0,1-.11-1.27V13a2.91,2.91,0,0,1,0-.31l.42.48c.1.12.19.23.26.3l1.45,1.66c.48.54.71.82.8.94v0h0a.16.16,0,0,0,.17-.11h0c0-.07,0-.32,0-1.09V13.27a4.72,4.72,0,0,1,.09-1.18.58.58,0,0,1,.32-.1l.1,0Zm-.77,15.31V21.92c0-1.59,0-1.85.91-1.93l.38,0c.09-.06.06-.33,0-.37-.75,0-1.26,0-1.86,0s-1.15,0-1.9,0c-.09,0-.12.31,0,.37l.38,0c.89.08.92.33.92,1.93v5.35c0,1.59,0,1.8-.92,1.9l-.38,0c-.09.09-.06.33,0,.37.75,0,1.26,0,1.9,0s1.11,0,1.86,0c.09,0,.12-.31,0-.37l-.38,0c-.88-.1-.91-.31-.91-1.9ZM309.38,15V12.74c0-.68,0-.73.34-.76h.18s0-.06,0-.12a.15.15,0,0,0-.06-.12h0l-.78,0-.79,0h0a.15.15,0,0,0-.06.12c0,.06,0,.1,0,.12h.18c.32,0,.34.08.34.76V15c0,.68,0,.71-.34.75l-.17,0h0a.16.16,0,0,0,0,.14.14.14,0,0,0,.06.1h0l.79,0,.78,0h0a.15.15,0,0,0,.06-.12c0-.06,0-.1,0-.12l-.18,0c-.32,0-.34-.07-.34-.75Zm1.92,5.71a5,5,0,0,0-1.89,4,4.83,4.83,0,0,0,2.13,4.13,6.56,6.56,0,0,0,3.74,1,8.79,8.79,0,0,0,2.37-.35,3.21,3.21,0,0,1,.53-.15,5.39,5.39,0,0,0,.72-2.06.33.33,0,0,0-.39-.06,3.19,3.19,0,0,1-3.14,2.15c-2.46,0-4.46-1.74-4.46-4.9s1.95-4.56,4.25-4.56S318,21,318.24,22.05a.32.32,0,0,0,.41,0c-.12-.92-.2-1.86-.21-2.21a1,1,0,0,1-.42-.06,11.94,11.94,0,0,0-2.66-.36,6.46,6.46,0,0,0-4.06,1.28ZM315.39,12a.18.18,0,0,0,0-.14.13.13,0,0,0-.06-.1h0l-.61,0-.65,0h0a.16.16,0,0,0-.07.11A.19.19,0,0,0,314,12h.14c.21,0,.23.07.23.07a.54.54,0,0,1-.05.23c-.11.27-.4,1-.58,1.4,0,.11-.1.25-.17.4s-.26.62-.38.89c-.3-.68-.57-1.36-.85-2.06-.18-.45-.29-.78-.31-.86s.07,0,.25-.07h.12a.15.15,0,0,0,0-.13.11.11,0,0,0-.06-.11H311a.17.17,0,0,0-.06.12.14.14,0,0,0,0,.12h.14c.25,0,.33.14.47.49l1.1,2.71a8.55,8.55,0,0,1,.29.83v0h0a.2.2,0,0,0,.11,0l.09,0h0v0c.11-.33.41-1.07.65-1.63l.34-.77a14.9,14.9,0,0,1,.7-1.43.35.35,0,0,1,.28-.2h.23Zm4.29,3.11h0v0a.16.16,0,0,0-.15-.08l-.08,0v0a1.43,1.43,0,0,1-.43.58,1.76,1.76,0,0,1-.78.09c-.52,0-.65-.06-.72-.13s-.11-.29-.11-.61V14c0-.12,0-.12.16-.12h.37a2.59,2.59,0,0,1,.47,0c.08,0,.13.08.16.2l.05.25v0a.15.15,0,0,0,.12,0,.14.14,0,0,0,.12-.05v0h0c0-.06,0-.14,0-.23s0-.24,0-.37,0-.26,0-.38,0-.18,0-.25h0v0a.14.14,0,0,0-.12,0,.15.15,0,0,0-.12,0l-.06.28c0,.14-.06.16-.12.18a2.25,2.25,0,0,1-.51,0h-.37c-.16,0-.16,0-.16-.13V12.23c0-.2,0-.2.14-.2H318a3.17,3.17,0,0,1,.6,0c.29.07.34.26.43.53v0h0a.12.12,0,0,0,.1,0c.05,0,.11,0,.13,0v-.11c0-.36-.07-.67-.1-.77v0h-.05a7.72,7.72,0,0,1-.83,0h-1.18l-.73,0h0a.15.15,0,0,0-.06.12c0,.06,0,.1,0,.12l.12,0c.32,0,.34.08.34.74V15c0,.68,0,.71-.35.73l-.22,0h0a.16.16,0,0,0,0,.14.14.14,0,0,0,.06.1h3.14l0,0a5.79,5.79,0,0,0,.28-.89Zm3.24-1.41a1,1,0,0,1-.62.15h-.39a.76.76,0,0,1,0-.17V12.16c0-.14,0-.15.36-.15a.87.87,0,0,1,.95.91.85.85,0,0,1-.29.74ZM324.8,16a.1.1,0,0,0,0-.1.09.09,0,0,0-.06-.07h0a.63.63,0,0,1-.4-.17A6.51,6.51,0,0,1,323.12,14a.14.14,0,0,1,0-.09,1.19,1.19,0,0,0,.8-1.08,1,1,0,0,0-.55-.92,2.29,2.29,0,0,0-1.07-.19,13.86,13.86,0,0,0-1.4,0h0a.14.14,0,0,0-.07.11.17.17,0,0,0,.05.13h0l.22,0c.2,0,.23.06.23.68V15c0,.66,0,.69-.33.73l-.18,0v0a.15.15,0,0,0,0,.14.15.15,0,0,0,.06.09h0l.78,0,.74,0h0a.14.14,0,0,0,.06-.11.17.17,0,0,0,0-.13h0l-.15,0c-.32,0-.33-.07-.33-.73v-.79c0-.09,0-.09.25-.09s.32.06.4.18.21.31.31.48.22.35.3.46a1.45,1.45,0,0,0,1.34.81,1.07,1.07,0,0,0,.29,0Zm1.58-3.42c0-.24.09-.64.7-.64a.77.77,0,0,1,.8.67v0a.13.13,0,0,0,.1,0,.16.16,0,0,0,.13-.06h0a2.81,2.81,0,0,0-.11-.78v0h0l-.21,0a2.47,2.47,0,0,0-.59-.08,1.17,1.17,0,0,0-1.32,1.12,1.4,1.4,0,0,0,.69,1.12l.6.39a.89.89,0,0,1,.49.83.66.66,0,0,1-.73.67,1.08,1.08,0,0,1-1-.89v0a.11.11,0,0,0-.1,0,.15.15,0,0,0-.13.06h0v0a3,3,0,0,0,.17.9h0a2.09,2.09,0,0,0,1,.23,1.23,1.23,0,0,0,1.38-1.2,1.45,1.45,0,0,0-.8-1.25l-.5-.31a1,1,0,0,1-.51-.73Zm-.61,12.52h-1.85c-.42,0-.44,0-.32-.36l.95-2.62c.17-.45.32-.81.36-.88h0a9.5,9.5,0,0,1,.35.94l.81,2.45c.13.41.1.47-.33.47Zm3.87,4.08c-.64-.07-.84-.3-1.27-1.59l-2.06-6c-.23-.66-.47-1.35-.66-2a.22.22,0,0,0-.23-.14,1.59,1.59,0,0,1-.78.57,2.13,2.13,0,0,1-.26,1.07l-1.53,4.06c-.63,1.68-1.05,2.66-1.32,3.35a1,1,0,0,1-.9.73l-.5,0a.29.29,0,0,0,0,.37c.41,0,.95,0,1.45,0,.7,0,1.17,0,1.56,0a.24.24,0,0,0,0-.37l-.5,0c-.36,0-.43-.12-.43-.3a5.42,5.42,0,0,1,.33-1.24l.52-1.58c.11-.32.2-.36.57-.36H326c.45,0,.51,0,.62.37l.66,2.05a3,3,0,0,1,.19.79c0,.15-.21.24-.52.27l-.44,0a.25.25,0,0,0,0,.37c.44,0,1,0,1.73,0s1.2,0,1.82,0c.07-.06.1-.3,0-.37l-.41,0Zm1-14.21V12.74c0-.69,0-.73.34-.76h.18a.11.11,0,0,0,0-.12.15.15,0,0,0-.06-.12h-1.61a.15.15,0,0,0-.06.12c0,.06,0,.1.05.12h.18c.31,0,.33.07.33.76V15c0,.68,0,.71-.34.75l-.17,0h0a.15.15,0,0,0,0,.14.11.11,0,0,0,.05.1h0l.78,0,.78,0h0a.15.15,0,0,0,.06-.12.11.11,0,0,0,0-.12l-.18,0c-.32,0-.34-.07-.34-.75Zm5.71-3.32v0h0a.14.14,0,0,0-.12-.06h-.07v0c-.08.14-.11.15-.45.15h-2.58c-.28,0-.41,0-.44-.16h0a.12.12,0,0,0-.09,0,.18.18,0,0,0-.09,0h0v0a6.08,6.08,0,0,1-.24.93v0h0a.16.16,0,0,0,.23.06h0a1,1,0,0,1,.27-.42,1.19,1.19,0,0,1,.73-.14h.35c.14,0,.14,0,.14.15V15c0,.67,0,.7-.35.73l-.22,0h0a.13.13,0,0,0-.06.12.14.14,0,0,0,.06.12h0l.87,0,.82,0h0a.15.15,0,0,0,.06-.12.11.11,0,0,0,0-.12l-.22,0c-.31,0-.33-.07-.33-.73V12.17a.38.38,0,0,1,0-.13h.56a1.2,1.2,0,0,1,.7.14.8.8,0,0,1,.14.43h0a.15.15,0,0,0,.24,0h0v0a3.51,3.51,0,0,1,.09-.93Zm2.56,8a8.83,8.83,0,0,0-1.91-.23,6.22,6.22,0,0,0-4.76,1.76,5.17,5.17,0,0,0-1.35,3.56,4.72,4.72,0,0,0,1.38,3.41,6.28,6.28,0,0,0,4.58,1.67,11.73,11.73,0,0,0,2.69-.39,3.73,3.73,0,0,1,.74-.13.13.13,0,0,0,0-.19c-.27-.1-.36-.46-.36-1.06v-.84c0-.77,0-1.19.65-1.26l.24,0a.27.27,0,0,0,0-.38c-.49,0-1,0-1.59,0-.89,0-1.71,0-2.15,0-.1,0-.12.31,0,.38l.66.07c.94.1,1,.2,1,1.46V28a1.65,1.65,0,0,1-.15.86c-.16.25-.72.45-1.65.45-3,0-4.51-2.27-4.51-5.16a4,4,0,0,1,4.19-4.32c1.54,0,2.66.51,3.08,2.13.09.09.36.07.41,0a16.48,16.48,0,0,1-.23-2.18,4.67,4.67,0,0,1-.93-.14ZM341.13,12a.13.13,0,0,0,.05-.12.17.17,0,0,0-.06-.12h0a11.61,11.61,0,0,1-1.18,0h0a.14.14,0,0,0-.07.1.18.18,0,0,0,0,.14H340a.93.93,0,0,1,.22.06,8.12,8.12,0,0,1-.37.75l0,.05c-.15.29-.32.6-.54,1-.17-.3-.33-.62-.49-.94l-.18-.37c0-.09-.18-.41-.19-.46s0,0,.22-.07h.11a.17.17,0,0,0,0-.15.11.11,0,0,0-.07-.09h0l-.67,0-.72,0h0a.14.14,0,0,0-.06.1.15.15,0,0,0,0,.13v0l.19,0c.17,0,.25,0,.46.45l.74,1.44a1.25,1.25,0,0,1,.19.76V15c0,.68,0,.72-.33.75l-.21,0v0a.16.16,0,0,0,0,.13.14.14,0,0,0,.06.1h0l.81,0,.85,0h0a.14.14,0,0,0,.06-.1.19.19,0,0,0,0-.14h0l-.26,0c-.28,0-.33-.07-.33-.75v-.32a1.41,1.41,0,0,1,.29-1l.39-.68.11-.18c.24-.43.42-.74.69-.79l.19,0Zm3.32,12.26c0-3.29,2-4.36,3.59-4.36,2.87,0,4,2.67,4,5.15,0,3-1.71,4.31-3.52,4.31-2.95,0-4-2.88-4-5.1Zm-1.5.48a5.06,5.06,0,0,0,5.35,5.09,5.13,5.13,0,0,0,5.21-5.24,4.94,4.94,0,0,0-5.21-5.16A5.2,5.2,0,0,0,343,24.7ZM348.07,14c0,1.29-.76,1.74-1.41,1.74-1.3,0-1.64-1.3-1.64-2.08,0-1.3.78-1.76,1.45-1.76,1.18,0,1.6,1.13,1.6,2.1Zm.72-.2a2.11,2.11,0,0,0-2.22-2.19,2.21,2.21,0,0,0-2.27,2.25,2.15,2.15,0,0,0,2.27,2.17,2.17,2.17,0,0,0,2.22-2.23ZM353,12.61h0c0-.23,0-.52,0-.82v-.06h-.06a7.83,7.83,0,0,1-.83,0h-1.15l-.73,0h0a.15.15,0,0,0-.06.12.11.11,0,0,0,0,.12l.12,0c.32,0,.34.08.34.74V15c0,.66,0,.69-.34.73l-.17,0v0a.13.13,0,0,0,0,.13.14.14,0,0,0,.06.1h0l.78,0,.83,0h0a.14.14,0,0,0,.06-.12.11.11,0,0,0,0-.12l-.24,0c-.32,0-.34-.07-.34-.73v-.87c0-.12,0-.12.16-.12h.43a2.77,2.77,0,0,1,.47,0,.26.26,0,0,1,.16.21l.07.26h0a.19.19,0,0,0,.24,0h0v0c0-.06,0-.15,0-.24s0-.24,0-.37,0-.26,0-.37,0-.19,0-.26h0a.14.14,0,0,0-.12,0,.15.15,0,0,0-.12,0l-.07.27c0,.15-.08.17-.12.19a2.72,2.72,0,0,1-.52,0h-.43c-.16,0-.16,0-.16-.12V12.23c0-.2,0-.2.14-.2h.39a3.16,3.16,0,0,1,.59,0c.27.07.35.25.4.56v0h0a.14.14,0,0,0,.09,0,.16.16,0,0,0,.14-.07Z"/></g></g></g></svg>