<?xml version="1.0" encoding="utf-8"?>
<!-- Generator: Adobe Illustrator 16.0.4, SVG Export Plug-In . SVG Version: 6.00 Build 0)  -->
<!DOCTYPE svg PUBLIC "-//W3C//DTD SVG 1.1//EN" "http://www.w3.org/Graphics/SVG/1.1/DTD/svg11.dtd">
<svg version="1.1" id="Layer_1" xmlns="http://www.w3.org/2000/svg" xmlns:xlink="http://www.w3.org/1999/xlink" x="0px" y="0px"
	 width="272.631px" height="29.486px" viewBox="18 35.955 272.631 29.486" enable-background="new 18 35.955 272.631 29.486"
	 xml:space="preserve">
<g>
	<line fill="none" stroke="#FFFFFF" stroke-width="0.7642" x1="159.559" y1="36.216" x2="159.559" y2="62.959"/>
	<g>
		<path fill="#FFFFFF" d="M163.738,36.374h2.508c2.02,0,3.416,1.387,3.416,3.197v0.019c0,1.81-1.396,3.215-3.416,3.215h-2.508
			V36.374z M165.152,37.65v3.876h1.094c1.156,0,1.938-0.781,1.938-1.92v-0.018c0-1.139-0.781-1.938-1.938-1.938H165.152z"/>
		<path fill="#FFFFFF" d="M170.734,36.098h1.469v1.24h-1.469V36.098z M170.77,37.88h1.396v4.924h-1.396V37.88z"/>
	</g>
	<g>
		<path fill="#FFFFFF" d="M172.846,37.88h1.479l1.102,3.298l1.111-3.298h1.453l-1.939,4.96h-1.268L172.846,37.88z"/>
		<path fill="#FFFFFF" d="M178.703,36.098h1.471v1.24h-1.471V36.098z M178.74,37.88h1.396v4.924h-1.396V37.88z"/>
		<path fill="#FFFFFF" d="M180.943,42.151l0.598-0.918c0.533,0.386,1.092,0.588,1.553,0.588c0.404,0,0.588-0.147,0.588-0.367v-0.019
			c0-0.303-0.479-0.404-1.02-0.569c-0.689-0.202-1.471-0.524-1.471-1.479v-0.019c0-1.001,0.809-1.562,1.801-1.562
			c0.625,0,1.305,0.211,1.836,0.569l-0.531,0.965c-0.488-0.285-0.975-0.459-1.332-0.459c-0.34,0-0.516,0.147-0.516,0.34v0.019
			c0,0.275,0.469,0.404,1.002,0.588c0.689,0.229,1.488,0.56,1.488,1.46v0.019c0,1.093-0.818,1.589-1.883,1.589
			C182.367,42.896,181.596,42.666,180.943,42.151z"/>
		<path fill="#FFFFFF" d="M185.846,36.098h1.469v1.24h-1.469V36.098z M185.881,37.88h1.396v4.924h-1.396V37.88z"/>
		<path fill="#FFFFFF" d="M188.232,40.37v-0.019c0-1.415,1.139-2.563,2.672-2.563c1.525,0,2.656,1.13,2.656,2.544v0.019
			c0,1.415-1.142,2.563-2.674,2.563C189.361,42.914,188.232,41.784,188.232,40.37z M192.182,40.37v-0.019
			c0-0.726-0.522-1.359-1.295-1.359c-0.799,0-1.277,0.615-1.277,1.341v0.019c0,0.726,0.523,1.359,1.295,1.359
			C191.705,41.71,192.182,41.095,192.182,40.37z"/>
		<path fill="#FFFFFF" d="M194.447,37.88h1.396v0.698c0.322-0.413,0.734-0.79,1.441-0.79c1.057,0,1.672,0.698,1.672,1.828v3.188
			h-1.396v-2.747c0-0.661-0.312-1.001-0.845-1.001c-0.532,0-0.873,0.34-0.873,1.001v2.747h-1.396V37.88z"/>
		<path fill="#FFFFFF" d="M202.443,40.37v-0.019c0-1.415,1.139-2.563,2.672-2.563c1.525,0,2.656,1.13,2.656,2.544v0.019
			c0,1.415-1.142,2.563-2.674,2.563C203.572,42.914,202.443,41.784,202.443,40.37z M206.393,40.37v-0.019
			c0-0.726-0.522-1.359-1.295-1.359c-0.799,0-1.277,0.615-1.277,1.341v0.019c0,0.726,0.523,1.359,1.296,1.359
			C205.916,41.71,206.393,41.095,206.393,40.37z"/>
		<path fill="#FFFFFF" d="M208.896,39.074h-0.578v-1.148h0.578v-0.312c0-0.542,0.139-0.938,0.396-1.194
			c0.256-0.257,0.633-0.386,1.129-0.386c0.44,0,0.733,0.055,0.992,0.138v1.158c-0.201-0.074-0.396-0.12-0.636-0.12
			c-0.319,0-0.504,0.166-0.504,0.533v0.193h1.129v1.139h-1.11v3.729h-1.396V39.074L208.896,39.074z"/>
	</g>
	<g>
		<path fill="#FFFFFF" d="M214.453,41.407v-2.333h-0.588V37.88h0.588v-1.258h1.396v1.258h1.157v1.194h-1.157v2.104
			c0,0.322,0.139,0.478,0.448,0.478c0.259,0,0.488-0.064,0.688-0.174v1.121c-0.293,0.175-0.633,0.285-1.102,0.285
			C215.031,42.886,214.453,42.546,214.453,41.407z"/>
		<path fill="#FFFFFF" d="M218.016,36.098h1.396v2.48c0.321-0.413,0.735-0.79,1.442-0.79c1.058,0,1.672,0.698,1.672,1.828v3.188
			h-1.396v-2.747c0-0.661-0.312-1.001-0.846-1.001s-0.873,0.34-0.873,1.001v2.747h-1.396V36.098z"/>
	</g>
	<g>
		<path fill="#FFFFFF" d="M223.43,40.37v-0.019c0-1.405,1.002-2.563,2.437-2.563c1.643,0,2.396,1.277,2.396,2.673
			c0,0.11-0.01,0.239-0.018,0.367h-3.428c0.139,0.634,0.58,0.965,1.205,0.965c0.467,0,0.807-0.147,1.192-0.505l0.8,0.707
			c-0.459,0.57-1.121,0.919-2.013,0.919C224.523,42.914,223.43,41.876,223.43,40.37z M226.902,39.956
			c-0.082-0.625-0.449-1.047-1.037-1.047c-0.58,0-0.957,0.413-1.066,1.047H226.902z"/>
	</g>
	<g>
		<path fill="#FFFFFF" d="M231.738,36.374h1.414v2.544h2.609v-2.544h1.413v6.43h-1.413v-2.581h-2.609v2.581h-1.414V36.374z"/>
		<path fill="#FFFFFF" d="M238.467,41.067V37.88h1.396v2.747c0,0.662,0.312,1.001,0.846,1.001s0.873-0.34,0.873-1.001V37.88h1.395
			v4.924h-1.395v-0.698c-0.322,0.414-0.736,0.79-1.443,0.79C239.082,42.896,238.467,42.197,238.467,41.067z"/>
		<path fill="#FFFFFF" d="M244.16,37.88h1.395v0.698c0.322-0.413,0.744-0.79,1.453-0.79c0.643,0,1.129,0.285,1.387,0.781
			c0.433-0.505,0.945-0.781,1.615-0.781c1.039,0,1.664,0.625,1.664,1.81v3.206h-1.396v-2.747c0-0.661-0.295-1.001-0.817-1.001
			s-0.844,0.34-0.844,1.001v2.747h-1.396v-2.747c0-0.661-0.296-1.001-0.818-1.001c-0.523,0-0.846,0.34-0.846,1.001v2.747h-1.396
			L244.16,37.88L244.16,37.88z"/>
		<path fill="#FFFFFF" d="M252.523,41.389V41.37c0-1.075,0.817-1.571,1.983-1.571c0.496,0,0.854,0.083,1.203,0.202v-0.083
			c0-0.579-0.356-0.9-1.058-0.9c-0.532,0-0.907,0.101-1.358,0.267l-0.351-1.065c0.543-0.239,1.076-0.395,1.912-0.395
			c0.763,0,1.312,0.202,1.662,0.551c0.367,0.368,0.533,0.91,0.533,1.571v2.857h-1.352v-0.533c-0.34,0.376-0.809,0.625-1.488,0.625
			C253.285,42.896,252.523,42.363,252.523,41.389z M255.729,41.067v-0.248c-0.237-0.11-0.551-0.184-0.891-0.184
			c-0.596,0-0.965,0.239-0.965,0.68v0.019c0,0.376,0.312,0.597,0.764,0.597C255.289,41.931,255.729,41.573,255.729,41.067z"/>
		<path fill="#FFFFFF" d="M258.188,37.88h1.396v0.698c0.322-0.413,0.734-0.79,1.441-0.79c1.057,0,1.672,0.698,1.672,1.828v3.188
			h-1.396v-2.747c0-0.661-0.311-1.001-0.844-1.001s-0.873,0.34-0.873,1.001v2.747h-1.396V37.88L258.188,37.88z"/>
		<path fill="#FFFFFF" d="M263.871,36.098h1.469v1.24h-1.469V36.098z M263.906,37.88h1.396v4.924h-1.396V37.88z"/>
		<path fill="#FFFFFF" d="M266.781,41.407v-2.333h-0.588V37.88h0.588v-1.258h1.396v1.258h1.156v1.194h-1.156v2.104
			c0,0.322,0.138,0.478,0.449,0.478c0.258,0,0.485-0.064,0.688-0.174v1.121c-0.295,0.175-0.635,0.285-1.104,0.285
			C267.359,42.886,266.781,42.546,266.781,41.407z"/>
		<path fill="#FFFFFF" d="M270.324,36.098h1.469v1.24h-1.469V36.098z M270.359,37.88h1.396v4.924h-1.396V37.88z"/>
	</g>
	<g>
		<path fill="#FFFFFF" d="M272.695,40.37v-0.019c0-1.405,1.002-2.563,2.436-2.563c1.643,0,2.396,1.277,2.396,2.673
			c0,0.11-0.01,0.239-0.019,0.367h-3.428c0.14,0.634,0.58,0.965,1.205,0.965c0.467,0,0.807-0.147,1.192-0.505l0.799,0.707
			c-0.459,0.57-1.12,0.919-2.012,0.919C273.789,42.914,272.695,41.876,272.695,40.37z M276.168,39.956
			c-0.082-0.625-0.449-1.047-1.037-1.047c-0.58,0-0.957,0.413-1.066,1.047H276.168z"/>
		<path fill="#FFFFFF" d="M278.039,42.151l0.598-0.918c0.533,0.386,1.092,0.588,1.553,0.588c0.404,0,0.588-0.147,0.588-0.367v-0.019
			c0-0.303-0.479-0.404-1.02-0.569c-0.689-0.202-1.471-0.524-1.471-1.479v-0.019c0-1.001,0.809-1.562,1.801-1.562
			c0.625,0,1.305,0.211,1.836,0.569l-0.531,0.965c-0.488-0.285-0.975-0.459-1.332-0.459c-0.34,0-0.516,0.147-0.516,0.34v0.019
			c0,0.275,0.469,0.404,1.002,0.588c0.689,0.229,1.488,0.56,1.488,1.46v0.019c0,1.093-0.818,1.589-1.883,1.589
			C279.463,42.896,278.691,42.666,278.039,42.151z"/>
	</g>
	<g>
		<path fill="#FFFFFF" d="M163.875,46.499h2.232c2.021,0,3.418,1.387,3.418,3.197v0.019c0,1.811-1.396,3.215-3.418,3.215h-2.232
			V46.499z M164.602,47.169v5.088h1.506c1.627,0,2.664-1.103,2.664-2.526v-0.018c0-1.424-1.037-2.544-2.664-2.544H164.602z"/>
		<path fill="#FFFFFF" d="M170.955,46.361h0.809v0.781h-0.809V46.361z M171,48.18h0.707v4.75H171V48.18z"/>
		<path fill="#FFFFFF" d="M173.295,53.756l0.322-0.552c0.541,0.396,1.148,0.606,1.828,0.606c1.047,0,1.727-0.58,1.727-1.69v-0.56
			c-0.414,0.551-0.992,1-1.865,1c-1.139,0-2.231-0.854-2.231-2.224V50.32c0-1.387,1.104-2.242,2.231-2.242
			c0.892,0,1.469,0.441,1.855,0.956V48.18h0.707v3.921c0,0.735-0.221,1.297-0.605,1.683c-0.424,0.422-1.057,0.634-1.811,0.634
			C174.664,54.417,173.93,54.195,173.295,53.756z M177.189,50.329V50.31c0-0.974-0.847-1.607-1.744-1.607
			c-0.9,0-1.646,0.625-1.646,1.599v0.019c0,0.955,0.763,1.617,1.646,1.617C176.344,51.938,177.189,51.285,177.189,50.329z"/>
		<path fill="#FFFFFF" d="M179.465,46.361h0.809v0.781h-0.809V46.361z M179.51,48.18h0.707v4.75h-0.707V48.18z"/>
		<path fill="#FFFFFF" d="M182.107,51.67v-2.866h-0.66V48.18h0.66v-1.433h0.707v1.433h1.508v0.625h-1.508v2.774
			c0,0.579,0.322,0.79,0.801,0.79c0.238,0,0.439-0.046,0.688-0.165v0.606c-0.248,0.127-0.514,0.201-0.854,0.201
			C182.688,53.012,182.107,52.635,182.107,51.67z"/>
		<path fill="#FFFFFF" d="M185.211,51.551v-0.019c0-1.001,0.826-1.534,2.029-1.534c0.607,0,1.039,0.083,1.461,0.203v-0.166
			c0-0.854-0.523-1.295-1.414-1.295c-0.561,0-1.002,0.146-1.443,0.349l-0.211-0.579c0.523-0.239,1.039-0.395,1.727-0.395
			c0.673,0,1.187,0.175,1.535,0.524c0.32,0.321,0.486,0.781,0.486,1.386v2.903h-0.68v-0.716c-0.33,0.433-0.883,0.815-1.717,0.815
			C186.102,53.029,185.211,52.523,185.211,51.551z M188.711,51.184v-0.459c-0.35-0.102-0.818-0.203-1.396-0.203
			c-0.891,0-1.387,0.388-1.387,0.983v0.019c0,0.598,0.551,0.945,1.193,0.945C187.994,52.469,188.711,51.938,188.711,51.184z"/>
		<path fill="#FFFFFF" d="M190.949,46.223h0.707v6.707h-0.707V46.223z"/>
		<path fill="#FFFFFF" d="M195.75,51.992l0.449-0.533c0.672,0.605,1.314,0.909,2.205,0.909c0.863,0,1.434-0.459,1.434-1.093v-0.02
			c0-0.597-0.322-0.937-1.672-1.222c-1.479-0.321-2.158-0.799-2.158-1.855V48.16c0-1.01,0.891-1.754,2.111-1.754
			c0.938,0,1.607,0.267,2.26,0.79l-0.422,0.561c-0.598-0.487-1.193-0.698-1.855-0.698c-0.836,0-1.369,0.459-1.369,1.038v0.018
			c0,0.606,0.332,0.946,1.746,1.25c1.435,0.312,2.095,0.836,2.095,1.818v0.019c0,1.104-0.919,1.819-2.195,1.819
			C197.357,53.021,196.521,52.682,195.75,51.992z"/>
		<path fill="#FFFFFF" d="M202.178,51.67v-2.866h-0.662V48.18h0.662v-1.433h0.707v1.433h1.506v0.625h-1.506v2.774
			c0,0.579,0.32,0.79,0.799,0.79c0.238,0,0.441-0.046,0.689-0.165v0.606c-0.248,0.127-0.516,0.201-0.855,0.201
			C202.756,53.012,202.178,52.635,202.178,51.67z"/>
		<path fill="#FFFFFF" d="M205.564,51.129V48.18h0.707v2.773c0,0.883,0.477,1.434,1.312,1.434c0.81,0,1.424-0.598,1.424-1.488V48.18
			h0.699v4.75h-0.699v-0.828c-0.319,0.516-0.81,0.928-1.625,0.928C206.234,53.029,205.564,52.258,205.564,51.129z"/>
		<path fill="#FFFFFF" d="M211.018,50.568V50.55c0-1.553,1.129-2.471,2.269-2.471c0.883,0,1.45,0.478,1.819,1.01v-2.866h0.707v6.707
			h-0.707v-0.955c-0.387,0.568-0.946,1.055-1.819,1.055C212.146,53.029,211.018,52.129,211.018,50.568z M215.133,50.559v-0.018
			c0-1.094-0.836-1.829-1.719-1.829c-0.918,0-1.672,0.68-1.672,1.829v0.018c0,1.121,0.781,1.838,1.672,1.838
			C214.297,52.396,215.133,51.652,215.133,50.559z"/>
		<path fill="#FFFFFF" d="M217.408,46.361h0.809v0.781h-0.809V46.361z M217.453,48.18h0.707v4.75h-0.707V48.18z"/>
		<path fill="#FFFFFF" d="M219.51,50.568V50.55c0-1.369,0.965-2.471,2.277-2.471c1.406,0,2.215,1.121,2.215,2.507
			c0,0.092,0,0.146-0.01,0.23h-3.766c0.1,1.027,0.825,1.606,1.672,1.606c0.649,0,1.11-0.267,1.496-0.671l0.44,0.396
			c-0.479,0.531-1.058,0.891-1.957,0.891C220.574,53.039,219.51,52.037,219.51,50.568z M223.285,50.293
			c-0.074-0.864-0.57-1.617-1.516-1.617c-0.828,0-1.451,0.689-1.543,1.617H223.285z"/>
		<path fill="#FFFFFF" d="M224.842,52.322l0.359-0.506c0.514,0.387,1.084,0.606,1.645,0.606c0.568,0,0.982-0.295,0.982-0.754V51.65
			c0-0.479-0.561-0.662-1.186-0.836c-0.744-0.211-1.57-0.468-1.57-1.341v-0.018c0-0.817,0.68-1.359,1.617-1.359
			c0.578,0,1.221,0.202,1.709,0.523l-0.322,0.533c-0.441-0.285-0.945-0.459-1.406-0.459c-0.559,0-0.918,0.294-0.918,0.689v0.019
			c0,0.45,0.588,0.624,1.223,0.817c0.734,0.221,1.523,0.507,1.523,1.359v0.019c0,0.9-0.744,1.424-1.689,1.424
			C226.129,53.021,225.375,52.754,224.842,52.322z"/>
		<path fill="#FFFFFF" d="M232.27,50.577v-0.019c0-1.342,1.047-2.48,2.48-2.48c1.424,0,2.471,1.121,2.471,2.462v0.019
			c0,1.342-1.057,2.479-2.488,2.479C233.309,53.039,232.27,51.918,232.27,50.577z M236.496,50.577v-0.019
			c0-1.021-0.764-1.855-1.764-1.855c-1.029,0-1.736,0.836-1.736,1.838v0.018c0,1.021,0.752,1.848,1.754,1.848
			C235.779,52.404,236.496,51.578,236.496,50.577z"/>
		<path fill="#FFFFFF" d="M238.762,48.804h-0.652v-0.615h0.652v-0.414c0-0.542,0.146-0.955,0.412-1.222
			c0.24-0.239,0.588-0.367,1.02-0.367c0.332,0,0.552,0.037,0.781,0.119v0.616c-0.258-0.074-0.449-0.12-0.688-0.12
			c-0.552,0-0.826,0.331-0.826,1.01v0.386h1.506v0.606h-1.495v4.125h-0.707v-4.124H238.762z"/>
		<path fill="#FFFFFF" d="M244.736,46.499h0.727v5.759h3.619v0.672h-4.346V46.499L244.736,46.499z"/>
		<path fill="#FFFFFF" d="M249.941,51.551v-0.019c0-1.001,0.828-1.534,2.031-1.534c0.604,0,1.036,0.083,1.459,0.203v-0.166
			c0-0.854-0.523-1.295-1.414-1.295c-0.562,0-1,0.146-1.441,0.349l-0.211-0.579c0.523-0.239,1.037-0.395,1.727-0.395
			c0.67,0,1.186,0.175,1.533,0.524c0.322,0.321,0.488,0.781,0.488,1.386v2.903h-0.682v-0.716c-0.33,0.433-0.882,0.815-1.718,0.815
			C250.834,53.029,249.941,52.523,249.941,51.551z M253.441,51.184v-0.459c-0.351-0.102-0.816-0.203-1.396-0.203
			c-0.891,0-1.387,0.388-1.387,0.983v0.019c0,0.598,0.551,0.945,1.195,0.945C252.725,52.469,253.441,51.938,253.441,51.184z"/>
		<path fill="#FFFFFF" d="M255.617,48.18h0.707v0.827c0.312-0.514,0.809-0.928,1.625-0.928c1.148,0,1.82,0.771,1.82,1.901v2.95
			h-0.709v-2.775c0-0.881-0.478-1.433-1.312-1.433c-0.818,0-1.424,0.597-1.424,1.488v2.72h-0.707V48.18L255.617,48.18z"/>
		<path fill="#FFFFFF" d="M261.217,53.756l0.322-0.552c0.541,0.396,1.148,0.606,1.828,0.606c1.047,0,1.727-0.58,1.727-1.69v-0.56
			c-0.414,0.551-0.992,1-1.865,1c-1.139,0-2.231-0.854-2.231-2.224V50.32c0-1.387,1.104-2.242,2.231-2.242
			c0.892,0,1.47,0.441,1.855,0.956V48.18h0.707v3.921c0,0.735-0.221,1.297-0.605,1.683c-0.424,0.422-1.057,0.634-1.811,0.634
			C262.586,54.417,261.852,54.195,261.217,53.756z M265.111,50.329V50.31c0-0.974-0.846-1.607-1.744-1.607
			c-0.9,0-1.645,0.625-1.645,1.599v0.019c0,0.955,0.762,1.617,1.645,1.617C264.266,51.938,265.111,51.285,265.111,50.329z"/>
		<path fill="#FFFFFF" d="M267.295,51.129V48.18h0.707v2.773c0,0.883,0.477,1.434,1.312,1.434c0.809,0,1.424-0.598,1.424-1.488
			V48.18h0.699v4.75h-0.699v-0.828c-0.32,0.516-0.809,0.928-1.625,0.928C267.965,53.029,267.295,52.258,267.295,51.129z"/>
		<path fill="#FFFFFF" d="M272.664,51.551v-0.019c0-1.001,0.828-1.534,2.031-1.534c0.604,0,1.037,0.083,1.459,0.203v-0.166
			c0-0.854-0.523-1.295-1.414-1.295c-0.561,0-1,0.146-1.441,0.349l-0.211-0.579c0.523-0.239,1.037-0.395,1.727-0.395
			c0.67,0,1.187,0.175,1.533,0.524c0.322,0.321,0.488,0.781,0.488,1.386v2.903h-0.682v-0.716c-0.33,0.433-0.881,0.815-1.717,0.815
			C273.557,53.029,272.664,52.523,272.664,51.551z M276.164,51.184v-0.459c-0.35-0.102-0.816-0.203-1.396-0.203
			c-0.891,0-1.387,0.388-1.387,0.983v0.019c0,0.598,0.551,0.945,1.195,0.945C275.447,52.469,276.164,51.938,276.164,51.184z"/>
		<path fill="#FFFFFF" d="M278.283,53.756l0.322-0.552c0.541,0.396,1.147,0.606,1.828,0.606c1.047,0,1.727-0.58,1.727-1.69v-0.56
			c-0.414,0.551-0.992,1-1.865,1c-1.139,0-2.232-0.854-2.232-2.224V50.32c0-1.387,1.104-2.242,2.232-2.242
			c0.891,0,1.469,0.441,1.855,0.956V48.18h0.707v3.921c0,0.735-0.222,1.297-0.605,1.683c-0.424,0.422-1.057,0.634-1.811,0.634
			C279.652,54.417,278.918,54.195,278.283,53.756z M282.178,50.329V50.31c0-0.974-0.846-1.607-1.744-1.607
			c-0.899,0-1.645,0.625-1.645,1.599v0.019c0,0.955,0.762,1.617,1.645,1.617C281.332,51.938,282.178,51.285,282.178,50.329z"/>
		<path fill="#FFFFFF" d="M284.141,50.568V50.55c0-1.369,0.965-2.471,2.277-2.471c1.406,0,2.215,1.121,2.215,2.507
			c0,0.092,0,0.146-0.01,0.23h-3.766c0.1,1.027,0.826,1.606,1.672,1.606c0.65,0,1.111-0.267,1.496-0.671l0.44,0.396
			c-0.479,0.531-1.057,0.891-1.957,0.891C285.205,53.039,284.141,52.037,284.141,50.568z M287.916,50.293
			c-0.074-0.864-0.57-1.617-1.516-1.617c-0.828,0-1.451,0.689-1.543,1.617H287.916z"/>
		<path fill="#FFFFFF" d="M289.502,53.729c0.459-0.166,0.652-0.404,0.615-0.799h-0.332v-0.965h0.846v0.826
			c0,0.744-0.322,1.104-1.02,1.259L289.502,53.729z"/>
		<path fill="#FFFFFF" d="M163.592,60.749V60.73c0-1.819,1.359-3.326,3.25-3.326c1.168,0,1.865,0.414,2.508,1.021l-0.496,0.532
			c-0.541-0.514-1.146-0.882-2.02-0.882c-1.424,0-2.49,1.157-2.49,2.637v0.019c0,1.488,1.074,2.654,2.49,2.654
			c0.881,0,1.461-0.34,2.076-0.928l0.477,0.469c-0.67,0.68-1.404,1.131-2.572,1.131C164.959,64.057,163.592,62.596,163.592,60.749z"
			/>
		<path fill="#FFFFFF" d="M170.459,62.145v-2.947h0.707v2.773c0,0.883,0.477,1.434,1.312,1.434c0.809,0,1.424-0.598,1.424-1.488
			v-2.719h0.699v4.748h-0.699v-0.826c-0.32,0.515-0.81,0.928-1.625,0.928C171.129,64.046,170.459,63.273,170.459,62.145z"/>
		<path fill="#FFFFFF" d="M176.252,57.239h0.707v6.706h-0.707V57.239z"/>
		<path fill="#FFFFFF" d="M178.85,62.688v-2.865h-0.662v-0.625h0.662v-1.434h0.707v1.434h1.506v0.625h-1.506v2.773
			c0,0.578,0.32,0.789,0.799,0.789c0.238,0,0.441-0.046,0.689-0.164v0.605c-0.248,0.128-0.516,0.201-0.855,0.201
			C179.428,64.027,178.85,63.65,178.85,62.688z"/>
		<path fill="#FFFFFF" d="M182.236,62.145v-2.947h0.707v2.773c0,0.883,0.479,1.434,1.313,1.434c0.81,0,1.425-0.598,1.425-1.488
			v-2.719h0.696v4.748h-0.696v-0.826c-0.322,0.515-0.81,0.928-1.627,0.928C182.906,64.046,182.236,63.273,182.236,62.145z"/>
		<path fill="#FFFFFF" d="M187.965,59.195h0.707v1.24c0.35-0.789,1.039-1.358,1.939-1.322v0.763h-0.055
			c-1.039,0-1.886,0.744-1.886,2.177v1.893h-0.707L187.965,59.195L187.965,59.195z"/>
		<path fill="#FFFFFF" d="M191.391,61.585v-0.019c0-1.369,0.965-2.473,2.277-2.473c1.406,0,2.215,1.121,2.215,2.508
			c0,0.092,0,0.147-0.01,0.23h-3.766c0.1,1.027,0.826,1.607,1.672,1.607c0.65,0,1.111-0.268,1.496-0.672l0.44,0.396
			c-0.479,0.532-1.057,0.892-1.957,0.892C192.455,64.057,191.391,63.055,191.391,61.585z M195.166,61.309
			c-0.074-0.863-0.57-1.615-1.516-1.615c-0.828,0-1.451,0.688-1.543,1.615H195.166z"/>
		<path fill="#FFFFFF" d="M199.514,62.566v-0.019c0-1.001,0.828-1.534,2.031-1.534c0.605,0,1.037,0.084,1.459,0.202v-0.165
			c0-0.854-0.523-1.295-1.414-1.295c-0.561,0-1,0.146-1.441,0.35l-0.211-0.578c0.523-0.239,1.037-0.396,1.728-0.396
			c0.67,0,1.187,0.176,1.533,0.523c0.321,0.322,0.487,0.781,0.487,1.388v2.901h-0.682v-0.717c-0.33,0.433-0.881,0.817-1.717,0.817
			C200.406,64.046,199.514,63.541,199.514,62.566z M203.014,62.2v-0.459c-0.35-0.103-0.815-0.202-1.396-0.202
			c-0.892,0-1.388,0.386-1.388,0.982v0.019c0,0.597,0.552,0.946,1.195,0.946C202.297,63.486,203.014,62.953,203.014,62.2z"/>
		<path fill="#FFFFFF" d="M205.188,59.195h0.707v0.828c0.312-0.516,0.81-0.93,1.627-0.93c1.148,0,1.818,0.772,1.818,1.902v2.947
			h-0.707V61.17c0-0.882-0.479-1.434-1.314-1.434c-0.815,0-1.424,0.598-1.424,1.488v2.719h-0.707V59.195z"/>
		<path fill="#FFFFFF" d="M210.568,61.585v-0.019c0-1.553,1.129-2.473,2.268-2.473c0.883,0,1.451,0.479,1.82,1.012v-2.866h0.707
			v6.706h-0.707V62.99c-0.387,0.568-0.947,1.056-1.82,1.056C211.697,64.046,210.568,63.146,210.568,61.585z M214.684,61.575v-0.019
			c0-1.094-0.836-1.828-1.719-1.828c-0.918,0-1.672,0.681-1.672,1.828v0.019c0,1.12,0.781,1.837,1.672,1.837
			C213.848,63.412,214.684,62.669,214.684,61.575z"/>
		<path fill="#FFFFFF" d="M219.812,57.516h0.725v2.856h3.711v-2.856h0.727v6.43h-0.727v-2.894h-3.711v2.894h-0.725V57.516z"/>
		<path fill="#FFFFFF" d="M226.689,57.378h0.809v0.78h-0.809V57.378z M226.734,59.195h0.707v4.75h-0.707V59.195z"/>
		<path fill="#FFFFFF" d="M228.689,63.339l0.358-0.505c0.515,0.387,1.084,0.605,1.646,0.605c0.567,0,0.981-0.293,0.981-0.754v-0.018
			c0-0.479-0.562-0.662-1.187-0.836c-0.743-0.212-1.569-0.469-1.569-1.342v-0.02c0-0.816,0.681-1.359,1.617-1.359
			c0.577,0,1.221,0.203,1.709,0.523l-0.322,0.533c-0.44-0.285-0.944-0.459-1.405-0.459c-0.56,0-0.918,0.294-0.918,0.688v0.02
			c0,0.45,0.588,0.625,1.223,0.816c0.734,0.222,1.522,0.507,1.522,1.359v0.02c0,0.899-0.743,1.424-1.688,1.424
			C229.977,64.037,229.223,63.771,228.689,63.339z"/>
		<path fill="#FFFFFF" d="M233.904,62.688v-2.865h-0.66v-0.625h0.66v-1.434h0.707v1.434h1.508v0.625h-1.508v2.773
			c0,0.578,0.322,0.789,0.801,0.789c0.238,0,0.439-0.046,0.688-0.164v0.605c-0.248,0.128-0.514,0.201-0.854,0.201
			C234.484,64.027,233.904,63.65,233.904,62.688z"/>
		<path fill="#FFFFFF" d="M237.072,61.594v-0.019c0-1.341,1.047-2.479,2.479-2.479c1.425,0,2.472,1.12,2.472,2.461v0.02
			c0,1.342-1.058,2.48-2.49,2.48C238.109,64.057,237.072,62.936,237.072,61.594z M241.297,61.594v-0.019
			c0-1.021-0.762-1.854-1.764-1.854c-1.029,0-1.736,0.836-1.736,1.836v0.02c0,1.02,0.754,1.847,1.756,1.847
			C240.58,63.422,241.297,62.596,241.297,61.594z"/>
		<path fill="#FFFFFF" d="M243.297,59.195h0.707v1.24c0.35-0.789,1.037-1.358,1.938-1.322v0.763h-0.055
			c-1.037,0-1.883,0.744-1.883,2.177v1.893h-0.707V59.195L243.297,59.195z"/>
		<path fill="#FFFFFF" d="M250.568,59.195h0.754l-1.994,4.906c-0.404,0.981-0.863,1.34-1.58,1.34c-0.395,0-0.688-0.082-1.01-0.237
			l0.238-0.562c0.229,0.119,0.44,0.176,0.744,0.176c0.424,0,0.688-0.221,0.975-0.893l-2.158-4.73h0.779l1.729,3.959L250.568,59.195z
			"/>
	</g>
	<g>
		<g>
			<defs>
				<rect id="SVGID_1_" x="18" y="35.955" width="137.92" height="27.73"/>
			</defs>
			<clipPath id="SVGID_2_">
				<use xlink:href="#SVGID_1_"  overflow="visible"/>
			</clipPath>
			<path clip-path="url(#SVGID_2_)" fill="#FFFFFF" d="M22.152,56.121c-0.215-0.092-0.449-0.15-0.647-0.286
				c0.14,0.472,0.243,0.884,0.504,1.381C22.158,57.499,22.417,56.814,22.152,56.121L22.152,56.121L22.152,56.121z M21.5,48.209
				l0.016,0.016c-0.003,0.639-1.798,1.556-2.567,1.968c1.189,0.411,2.314-0.693,2.179-0.425c-0.162,0.313-1.613,1.565-2.246,2.235
				c0.493,0.138,0.945-0.261,1.303-0.565c0.39-0.332,1.042-1.167,0.943-0.752c-1.055,1.303-1.886,4.008-1.374,4.181
				c0.293-0.613,1.507-3.738,1.583-3.724c0.08,0.016-0.096,0.824-0.122,1.36c-0.06,1.179-0.068,1.735,0.188,2.896
				c0.131-0.181,0.257-0.176,0.464-0.162c0.026-0.111,0.018-0.084-0.112-0.256c-0.337-0.445,0.05-1.056-0.112-1.426
				c-0.135-0.312-0.211-0.062-0.273-0.386c0.095-0.087,0.346-0.112,0.449-0.129c0.11-1.21,0.515-1.825,0.364-1.062
				c-0.077,0.386-0.195,1.026-0.139,1.045c0.056,0.02,0.061,0.02,0.109,0.045c0.022,0.012,2.033-3.295,0.918-1.004
				c-0.146,0.301-0.74,1.109-0.74,1.109c0.157,0.16,0.304,0.348,0.323,0.462c0.005,0.03,2.694-3.54,0.862-0.663
				c-0.112,0.178-0.662,0.767-0.802,0.938c-0.019,0.023,0.051,0.669,0.051,0.669c0.279-0.193,0.679-0.584,0.865-0.833
				c-0.024-0.365,0.061-0.316,0.081-0.674c0.085-0.055,0.196,0.098,0.331,0.219c0.064,0.057,1.846-3.046,0.728-0.718
				c-0.179,0.372-0.576,0.815-0.595,0.852c0.075,0.08,0.188,0.337,0.315,0.634c0.005,0.012,2.383-3.432,0.938-0.83
				c-0.114,0.205-0.83,1.066-0.821,1.09c0.176,0.431,0.33,0.85,0.329,0.849c-0.043-0.335-0.112-0.996,0.584-1.542
				c0.09,0.598,0.25,0.622,0.458,0.805c0.091,0.082,0.261,0.422,0.281,0.131c0.059-0.848-0.217-0.826-0.422-1.188
				c-0.049-0.087-0.04-0.281-0.001-0.27c1.712,0.051,1.656,1.655,1.941,1.654c-0.13-0.408-0.165-0.812-0.011-1.141
				c-0.459-0.325-0.344-0.883-0.257-1.122c-0.516-0.534-0.22-1.668,0.027-1.907c-0.332-0.482,0.077-0.812-0.011-1.108
				c-0.139-1.048-1.073-0.736-1.283-1.732c-0.146,0.178-0.416,0.782-0.29,0.982c0.145,0.23,0.457,0.25,0.476,0.418
				c0.008,0.072,0.031,0.272-0.021,0.315c-0.177,0.032-0.297-0.13-0.479-0.203c-0.363-0.143-1.241,0.458-1.294-0.073
				c-0.034-0.334,0.115-0.094,0.098-0.402c-0.015-0.319-0.175-0.095-0.178-0.506c-0.001-0.301,0.362-0.396,0.389-0.517
				c0.064-0.299,0.607,0.44,0.926-0.344c-0.185,0.026-0.561-0.104-0.525-0.286c0.095-0.49,0.103-1.677-1.007-1.421
				c-0.398,0.092-1.508,0.676-1.662,0.041c-0.4,0.708,0.391,0.584,0.63,0.57c-0.094,0.066-0.213,0.172-0.508,0.108
				c-0.625,0.412-2.909,1.862-3.568,2.228C20.119,49.068,21.481,48.209,21.5,48.209L21.5,48.209L21.5,48.209z M23.644,54.072
				c-0.31,0.309-0.418,0.316-0.4,0.451c0.07,0.188,0.206,0.32,0.351,0.482c0.183,0.148,0.25,0.284,0.116-0.15
				C23.628,54.566,23.648,54.355,23.644,54.072L23.644,54.072L23.644,54.072z M28.626,47.31c-0.055-0.124-0.148-0.241-0.282-0.302
				c-0.555-0.264-1.618,0.307-1.606-0.525c0,0-0.38,0.282-0.207,0.578C26.926,47.735,28.03,46.897,28.626,47.31L28.626,47.31
				L28.626,47.31z M20.278,38.994c-0.929,0-0.949,1.423,0,1.423C21.211,40.417,21.211,38.994,20.278,38.994L20.278,38.994
				L20.278,38.994z M20.278,41.836c-0.971,0-0.971,1.422,0,1.422C21.217,43.258,21.211,41.836,20.278,41.836L20.278,41.836
				L20.278,41.836z M21.251,40.188h0.827v-0.814h-0.827V40.188L21.251,40.188L21.251,40.188z M21.251,43.023h0.827V42.21h-0.827
				V43.023L21.251,43.023L21.251,43.023z M23.507,42.134c-0.372,0.228-0.306,0.479-0.183,0.633c0.067-0.047,0.307-0.21,0.405-0.308
				C23.672,42.426,23.546,42.235,23.507,42.134L23.507,42.134L23.507,42.134z M24.367,40.876c-0.002-0.079-0.005-0.153-0.012-0.194
				c0.009-0.073-0.129-0.241-0.167-0.243c-0.044-0.001-0.138,0.083-0.191,0.167c-0.027,0.048-0.033,0.177,0.026,0.245
				C24.141,40.983,24.195,40.987,24.367,40.876L24.367,40.876L24.367,40.876z M24.369,41.277c0-0.03-0.001-0.059,0-0.092
				c0-0.036,0.001-0.132,0-0.232c-0.116,0.071-0.162,0.126-0.281,0.056c-0.195,0.157,0.103,0.254,0.166,0.308
				C24.298,41.293,24.335,41.285,24.369,41.277L24.369,41.277L24.369,41.277z M25.88,38.996c0.065-0.048,0.221-0.226,0.322-0.323
				c-0.057-0.035-0.16-0.106-0.2-0.205C25.825,38.61,25.791,38.709,25.88,38.996L25.88,38.996L25.88,38.996z M27.201,39.167
				c-0.109,0.086-0.207,0.164-0.258,0.208c0.04,0.075,0.292,0.257,0.433,0.192c0.139-0.064,0.206-0.203,0.077-0.276
				C27.363,39.24,27.281,39.203,27.201,39.167L27.201,39.167L27.201,39.167z M27.308,38.946c0.065-0.052,0.126-0.102,0.147-0.119
				c-0.098-0.091-0.262-0.179-0.336-0.189c-0.073-0.008-0.222,0.056-0.164,0.132c0.056,0.073,0.114,0.165,0.235,0.182
				C27.23,38.958,27.27,38.953,27.308,38.946L27.308,38.946L27.308,38.946z M27.695,42.623c0.006-0.098,0.011-0.197,0.002-0.25
				c0.012-0.074-0.217-0.212-0.254-0.212c-0.048-0.001-0.048,0.026-0.103,0.113c-0.027,0.046-0.004,0.187,0.019,0.207
				C27.483,42.59,27.581,42.625,27.695,42.623L27.695,42.623L27.695,42.623z M27.394,42.644c-0.198,0.165,0.025,0.316,0.085,0.37
				c0.067-0.033,0.153-0.048,0.222-0.072c-0.009-0.027-0.022-0.052-0.022-0.083c0-0.029,0.005-0.095,0.011-0.166
				C27.558,42.705,27.499,42.714,27.394,42.644L27.394,42.644L27.394,42.644z M26.957,42.901l-0.122,0.135l-0.116,0.118
				c-0.09-0.092-0.155-0.109-0.17-0.182l-0.004-0.59l-0.185-0.096c-0.086,0.071-0.151,0.041-0.077-0.024l0.279-0.26l0.067-0.01
				l0.178,0.262l0.004,0.557C26.884,42.877,26.82,42.876,26.957,42.901L26.957,42.901L26.957,42.901z M26.896,41.097
				c-0.094-0.261,0.077-0.504,0.16-0.574c0.067-0.056,0.221-0.187,0.322-0.25c0.097,0.059,0.171,0.101,0.221,0.124
				c-0.018,0.048-0.04,0.143-0.142,0.147c-0.155,0.004-0.276-0.037-0.36,0.054c-0.083,0.089-0.019,0.345,0.086,0.442
				c0.078,0.075,0.292,0.17,0.333,0.083c0.052-0.114,0.128-0.055,0.053,0.044c-0.05,0.064-0.142,0.204-0.19,0.295
				C27.212,41.449,26.99,41.364,26.896,41.097L26.896,41.097L26.896,41.097z M27.124,42.933c-0.001-0.145,0.074-0.259,0.175-0.363
				c-0.007-0.007-0.011-0.009-0.019-0.015c-0.029-0.024-0.077-0.279-0.04-0.332c0.048-0.071,0.274-0.286,0.425-0.301
				c0.104-0.011,0.257,0.213,0.347,0.313c-0.025,0.029,0.031,0.647,0.031,0.706c0.031,0.051,0.139,0.087,0.172,0.038
				c0.042-0.055,0.083,0.003,0.042,0.044c-0.042,0.039-0.196,0.163-0.244,0.221c-0.069-0.055-0.185-0.115-0.26-0.206
				c-0.154,0.029-0.313,0.14-0.438,0.231C27.175,43.208,27.129,43.071,27.124,42.933L27.124,42.933L27.124,42.933z M28.377,41.361
				l-0.125,0.134l-0.157,0.135c-0.089-0.092-0.153-0.117-0.168-0.19l-0.005-0.607l-0.145-0.088
				c-0.084,0.075-0.152,0.042-0.076-0.025l0.28-0.258l0.065-0.009l0.122,0.18l-0.005,0.645
				C28.237,41.344,28.237,41.335,28.377,41.361L28.377,41.361L28.377,41.361z M28.225,39.375c-0.337-0.035-0.25-0.141-0.192-0.137
				C28.348,39.257,28.277,39.381,28.225,39.375L28.225,39.375L28.225,39.375z M28.23,39.174c-0.336,0.013-0.249-0.141-0.193-0.138
				C28.322,39.053,28.283,39.172,28.23,39.174L28.23,39.174L28.23,39.174z M27.958,39.9l0.144,0.149v0.155l-0.107,0.097h-0.09
				l-0.089-0.091l-0.003-0.18L27.958,39.9L27.958,39.9L27.958,39.9z M27.808,38.669c-0.034,0.042-0.167,0.149-0.318,0.27
				c0.023,0.004,0.045,0.008,0.069,0.022c0.245,0.143,0.328,0.345,0.088,0.535c-0.132,0.106-0.346,0.225-0.577,0.23
				c-0.153,0.004-0.425-0.125-0.475-0.179c0.125-0.117,0.259-0.245,0.356-0.327c-0.151-0.116-0.293-0.273-0.178-0.452
				c0.087-0.135,0.355-0.35,0.594-0.341C27.603,38.439,27.71,38.602,27.808,38.669L27.808,38.669L27.808,38.669z M26.533,39.453
				c-0.066,0.033-0.2,0.171-0.307,0.171c-0.321-0.013-0.726-0.246-0.666-0.677c0.062-0.449,0.416-0.621,0.567-0.625
				c0.174,0.013,0.214,0.163,0.312,0.253c-0.148,0.121-0.391,0.36-0.534,0.506c0.035,0.076,0.201,0.359,0.555,0.271
				C26.623,39.314,26.675,39.383,26.533,39.453L26.533,39.453L26.533,39.453z M25.471,38.74c-0.058,0.058-0.192,0.143-0.245,0.182
				c-0.068-0.041-0.152-0.164-0.195-0.196c-0.019,0.018-0.059,0.039-0.098,0.061c0,0.081,0.004,0.811-0.004,0.895
				c-0.103,0.005-0.192,0.012-0.264-0.003c-0.008-0.106,0.007-0.689,0.002-0.784c-0.008-0.116-0.111-0.124-0.246-0.164
				c0.077-0.093,0.22-0.197,0.284-0.247c0.116,0.091,0.188,0.091,0.246,0.157c0.074-0.041,0.208-0.121,0.266-0.169
				c0.055,0.064,0.157,0.169,0.197,0.217C25.467,38.638,25.532,38.681,25.471,38.74L25.471,38.74L25.471,38.74z M24.354,40.249
				c0.102-0.011,0.189,0.198,0.28,0.296c-0.026,0.028-0.026,0.646-0.026,0.705c0.021,0.035,0.094,0.076,0.123,0.048
				c0.05-0.048,0.082,0,0.039,0.04c-0.039,0.04-0.241,0.214-0.292,0.27c-0.07-0.054-0.095-0.132-0.105-0.239
				c-0.124,0.029-0.238,0.098-0.312,0.21c-0.138-0.062-0.244-0.182-0.249-0.316c-0.003-0.139,0.092-0.219,0.192-0.313
				c-0.018-0.014-0.033-0.025-0.053-0.043c-0.028-0.024-0.066-0.248-0.04-0.309C23.979,40.442,24.201,40.263,24.354,40.249
				L24.354,40.249L24.354,40.249z M24.151,39.923c-0.045-0.066-0.057-0.126-0.15-0.1c-0.236,0.068-0.494,0.139-0.681,0.029
				c-0.2-0.122-0.372-0.161-0.376-0.616c-0.004-0.277,0.24-0.497,0.4-0.591c0.181-0.104,0.494-0.037,0.634,0.005
				c0.068,0.022,0.12,0.014,0.125-0.074c0.001-0.048,0.077-0.037,0.075,0c0,0.039-0.002,0.6-0.002,0.645
				c-0.001,0.044-0.093,0.048-0.09,0.006c0-0.063-0.022-0.185-0.043-0.284c-0.031-0.148-0.417-0.419-0.696-0.054
				c-0.006,0.017-0.119,0.209-0.104,0.358c0.009,0.111,0.027,0.267,0.102,0.37c0.219,0.31,0.53,0.206,0.693-0.047
				c0.059-0.092,0.049-0.204,0.053-0.271c0-0.039,0.088-0.044,0.088,0c0,0.046-0.004,0.419-0.004,0.455
				c0.001,0.054,0.042,0.097,0.062,0.124C24.289,39.959,24.227,40.025,24.151,39.923L24.151,39.923L24.151,39.923z M22.972,40.521
				c0.109-0.162,0.364-0.317,0.538-0.38c0.055,0.064,0.122,0.164,0.202,0.271c-0.082,0.064-0.165,0.147-0.213,0.205
				c-0.038-0.042-0.246-0.354-0.393-0.136c-0.08,0.116-0.164,0.456,0.107,0.666c0.132,0.1,0.271,0.133,0.452,0.104
				c-0.092,0.12-0.115,0.155-0.167,0.259c-0.262,0.047-0.369-0.037-0.498-0.145C22.729,41.142,22.815,40.762,22.972,40.521
				L22.972,40.521L22.972,40.521z M23.084,42.604c0.066-0.451,0.503-0.634,0.635-0.723c0.023,0.13,0.175,0.358,0.272,0.45
				c-0.148,0.121-0.488,0.406-0.619,0.504c0.071,0.13,0.342,0.225,0.432,0.125c0.067-0.067,0.149-0.044,0.075,0.043
				c-0.099,0.113-0.199,0.275-0.249,0.375C23.435,43.295,23.026,43.038,23.084,42.604L23.084,42.604L23.084,42.604z M24.125,42.228
				c0.124-0.098,0.191-0.171,0.275-0.251c0.074,0.117,0.107,0.227,0.173,0.276c0.088-0.075,0.236-0.167,0.302-0.241
				c0.064,0.032,0.177,0.1,0.186,0.331c0.005,0.23,0.037,0.591,0.037,0.67c0,0.042,0.012,0.03,0.079,0.015
				c0.062-0.017,0.088,0.015,0.04,0.057c-0.049,0.04-0.276,0.198-0.337,0.266c-0.08-0.149-0.094-0.256-0.062-0.404
				c0.026-0.121,0.004-0.45,0.004-0.524c0-0.074-0.113-0.099-0.161-0.141c-0.067,0.05-0.075,0.058-0.134,0.114
				c0,0.099-0.013,0.792,0.002,0.882c-0.156,0.006-0.14-0.003-0.23-0.003c-0.007-0.134-0.003-0.667-0.01-0.782
				C24.28,42.377,24.183,42.294,24.125,42.228L24.125,42.228L24.125,42.228z M25.33,41.418c-0.067,0.059-0.214-0.034-0.267-0.124
				c-0.084-0.142-0.058-0.476-0.047-0.748c0.011,0.001-0.048-0.067-0.104-0.078c-0.072-0.019-0.084-0.044,0.027-0.089
				c0.136-0.054,0.347-0.38,0.376-0.454c0.026-0.072,0.067-0.004,0.027,0.066c-0.084,0.162-0.049,0.35-0.036,0.406
				c0.009,0.025,0.266-0.01,0.32-0.01c0.036,0.002,0.032,0.109-0.002,0.106c-0.044-0.001-0.38,0.041-0.38,0.041
				c-0.023,0.012,0.027,0.541,0.061,0.581c0.005,0.006,0.11,0.098,0.151,0.059c0.05-0.047,0.1,0.003,0.04,0.052
				C25.464,41.251,25.407,41.356,25.33,41.418L25.33,41.418L25.33,41.418z M25.47,42.21c0.104-0.076,0.28-0.401,0.303-0.475
				c0.022-0.076,0.065-0.05,0.058,0.031c-0.009,0.115-0.062,0.372-0.042,0.424c0.009,0.026,0.173,0.024,0.228,0.024
				c0.036,0,0.039,0.105,0.005,0.105c-0.044,0-0.228,0.027-0.228,0.027c-0.026,0.011-0.012,0.392,0.023,0.432
				c0.073,0.07,0.129,0.119,0.229,0.013c0.048-0.05,0.099-0.003,0.042,0.047c-0.031,0.028-0.169,0.197-0.2,0.28
				c-0.031,0.082-0.214,0.019-0.272-0.067c-0.092-0.138-0.053-0.417-0.06-0.689C25.573,42.368,25.381,42.276,25.47,42.21
				L25.47,42.21L25.47,42.21z M26.714,41.704c-0.084,0.08-0.152,0.156-0.226,0.237c-0.064-0.042-0.161-0.125-0.235-0.19
				c0.123-0.056,0.189-0.131,0.231-0.213C26.533,41.646,26.63,41.688,26.714,41.704L26.714,41.704L26.714,41.704z M26.155,40.361
				c0.195,0.062,0.485,0.017,0.576,0.276c0.098,0.273-0.08,0.625-0.307,0.642c-0.191,0.016-0.363-0.048-0.47-0.04
				c-0.049,0.004-0.085,0.02-0.094,0.073c-0.007,0.058-0.083,0.083-0.098,0.007c-0.017-0.073-0.038-0.384-0.038-0.475
				c0-0.091,0.083-0.1,0.1,0c0.016,0.097,0.044,0.166,0.121,0.25c0.058,0.066,0.432,0.159,0.57,0.049
				c0.111-0.089,0.084-0.284-0.031-0.359c-0.115-0.076-0.578-0.184-0.657-0.315c-0.135-0.227,0.106-0.416,0.211-0.477
				c0.166-0.092,0.357-0.062,0.423-0.061c0.065,0,0.151,0.021,0.156-0.049c0.005-0.069,0.058-0.063,0.064,0.009
				c0.021,0.203,0.042,0.081,0.035,0.296c0,0.099-0.035,0.1-0.077,0.024c-0.027-0.05-0.312-0.288-0.542-0.14
				C25.902,40.2,25.976,40.312,26.155,40.361L26.155,40.361L26.155,40.361z M26.879,43.888c1.017,0.067,1.882,0.537,1.882,0.537
				v-6.554c0,0-1.495-1.046-3.922-0.11c-0.714,0.275-2.452,0.044-2.452,0.044v6.698C23.912,44.607,25.897,43.822,26.879,43.888
				L26.879,43.888L26.879,43.888z M29.272,46.043c0,0.087-0.112,0.209-0.112,0.209l0.405-0.205
				c-0.081-0.054-0.309-0.182-0.404-0.209C29.16,45.838,29.271,45.924,29.272,46.043L29.272,46.043L29.272,46.043z M29.874,46.036
				c-0.373,0.072-0.652,0.48-1.076,0.306c-0.055-0.037-0.17-0.067-0.155-0.151c0.076,0.044,0.195,0.072,0.278,0.084
				c0,0-0.228-0.188-0.027-0.42c-0.255,0.161-0.345,0.117-0.345,0.032c0-0.039,0.335-0.283,0.651-0.163
				c0.229,0.086,0.424,0.261,0.674,0.297V46.036L29.874,46.036L29.874,46.036z M28.83,45.267c-0.21,0.024-0.464,0.147-0.528,0.369
				c-0.128,0.126-0.122-0.212-0.381-0.064c-0.111,0.15,0.178,0.481,0.109,0.501c-0.283,0.085-0.248-0.424-0.409-0.438
				c-0.232,0.083-0.817,0.617-0.242,1.041c-0.018-0.286,0.524-0.597,0.703,0.034c0.543-0.042,0.726,0.288,0.793,0.475
				c0.8,0.143,0.57,0.673,0.547,0.673c-0.076-0.114-0.42-0.645-0.983-0.278c-0.13,0.084-0.356,0.167-0.468,0.056
				c0.011,0.178,0.235,0.338,0.389,0.296c0.501-0.137,0.627,0.329,0.244,0.456c0.082,0.128,0.24,0.12,0.385,0.032
				c0.215-0.131,0.241-0.248,0.319-0.327c0.137,0.653-0.69,0.716-0.954,0.755c0.041,0.139,0.129,0.169,0.296,0.218
				c-0.872,0.03-1.043,0.848-0.992,1.32c0.197,0.015,0.499-0.412,0.473-0.167c-0.618,0.655-0.826,1.532-0.501,2.092
				c0.155-0.062,0.203-0.233,0.258-0.373c0.023-0.017,0.34,0.125-0.167,0.732c-0.035,0.158-0.213,0.635,0.178,0.749
				c0.149-0.176,0.127-0.329,0.16-0.51c0.113-0.045,0.188,0.323,0.144,0.435c-0.509,0.211-0.446,1.773,0.145,2.613
				c-0.273-0.609-0.237-1.395,0-2.02c0.182-0.482,0.583-1.569,0.593-1.558c0.228,0.279,0.514,1.478,0.514,1.974
				c0.319-0.277,0.381-0.58,0.642-0.785c0.124,0.436,0.174,0.723,0.272,1.105c0.126-0.375,0.461-0.798-0.017-2.015
				c0.099-0.089,0.28,0.422,0.337,0.397c0.043-0.019,0.108-0.272-0.054-0.748c-0.335-0.313-0.411-0.774-0.358-0.809
				c0.043-0.029,0.194,0.477,0.373,0.502c0.036-0.393,0.132-0.793,0.103-1.098c-0.007-0.08-0.138-0.484-0.51-0.82
				c-0.215-0.193-0.297-0.598-0.278-0.68c0.208,0.191,0.163,0.332,0.339,0.409c0.074-0.165,0.023-0.775-0.191-1.043
				c-0.122-0.202-0.064-0.174,0.082-0.052c0.192,0.228,0.1,0.21,0.265,0.305c0.362-0.854,0.033-1.021,0.059-1.081
				c0.022-0.054,0.28,0.398,0.499,0.225c-0.356-0.188-0.347-0.475-0.387-0.784c-0.031-0.245-0.188-0.336-0.128-0.396
				c0.356,0.268,0.454-0.029,0.465-0.088c-0.068,0.039-0.385,0.081-0.424-0.412c-0.015-0.194-0.313-0.28-0.312-0.279
				c0.183-0.035,0.77-0.068,0.629-0.65c-0.071,0.137-0.245,0.354-0.609,0.269c-0.001,0,0.234-0.063,0.191-0.316
				C29.875,45.828,29.417,45.184,28.83,45.267L28.83,45.267L28.83,45.267z M33.811,39.227c0.094,0.078,0.352,0.199,0.483,0.246
				c0-0.111-0.001-0.221-0.01-0.273c0.009-0.074-0.254-0.215-0.295-0.215c-0.047-0.004-0.115,0.074-0.175,0.163
				C33.783,39.196,33.786,39.208,33.811,39.227L33.811,39.227L33.811,39.227z M34.081,39.932c0.087-0.042,0.147-0.06,0.215-0.064
				c-0.003-0.034-0.007-0.068-0.006-0.11c0-0.033,0.003-0.123,0.004-0.223c-0.116-0.037-0.264-0.099-0.39-0.17
				c0.019,0.012,0.038,0.021,0.057,0.033C33.823,39.648,34.009,39.873,34.081,39.932L34.081,39.932L34.081,39.932z M34.088,41.311
				c0.057,0.148,0.307,0.341,0.376,0.374c0.104-0.125,0.16-0.355,0.137-0.549c-0.018-0.149-0.21-0.312-0.376-0.374
				C34.013,40.892,34.013,41.112,34.088,41.311L34.088,41.311L34.088,41.311z M30.754,42.715c-0.124,0.235-0.022,0.284,0.048,0.341
				c0.087-0.043,0.164-0.083,0.226-0.126c0-0.043,0.002-0.123,0.003-0.211C30.891,42.734,30.845,42.765,30.754,42.715L30.754,42.715
				L30.754,42.715z M31.032,42.65c0-0.105-0.001-0.209-0.009-0.258c0.008-0.077-0.156-0.189-0.199-0.192
				c-0.047,0-0.085,0.018-0.144,0.107c-0.029,0.047-0.022,0.235,0.003,0.255C30.822,42.679,30.909,42.665,31.032,42.65L31.032,42.65
				L31.032,42.65z M31.237,43.253c-0.09-0.068-0.167-0.085-0.195-0.193c-0.232,0.089-0.319,0.223-0.458,0.32
				c-0.081-0.076-0.149-0.211-0.151-0.353c-0.003-0.138,0.133-0.324,0.209-0.396c-0.009-0.009-0.015-0.01-0.025-0.02
				c-0.031-0.025-0.073-0.228-0.033-0.281c0.051-0.073,0.258-0.356,0.42-0.37c0.111-0.011,0.198,0.128,0.293,0.23
				c-0.024,0.027-0.013,0.521-0.017,0.582c0.104,0.111,0.146,0.137,0.208,0.096c0.062-0.043,0.087,0,0.043,0.041
				C31.488,42.952,31.291,43.194,31.237,43.253L31.237,43.253L31.237,43.253z M31.799,42.27c0.017,0.004-0.229-0.093-0.124-0.145
				c0.185-0.091,0.367-0.282,0.396-0.361c0.028-0.074,0.099-0.041,0.062,0.035c-0.036,0.075-0.062,0.26-0.041,0.317
				c0.008,0.025,0.147,0.037,0.21,0.038c0.036,0,0.033,0.11-0.003,0.11c-0.046-0.001-0.22,0.002-0.22,0.002
				c-0.025,0.012-0.006,0.619,0.008,0.671c0.02,0.05,0.163,0.085,0.216,0.036c0.054-0.049,0.108,0.002,0.044,0.05
				c-0.033,0.028-0.143,0.201-0.229,0.235c-0.09,0.035-0.225-0.023-0.283-0.112C31.739,43.003,31.795,42.548,31.799,42.27
				L31.799,42.27L31.799,42.27z M32.21,41.439c-0.106-0.06-0.25-0.199-0.328-0.314c-0.141,0.181-0.174,0.334-0.432,0.401
				c0.149-0.125,0.286-0.401,0.275-0.664c-0.012-0.238-0.141-0.354-0.255-0.398c-0.098,0.047-0.183,0.111-0.234,0.133
				c-0.054,0.021-0.069-0.062-0.03-0.081c0.125-0.061,0.4-0.271,0.438-0.312c0.117,0.021,0.261,0.122,0.281,0.216
				c0.088-0.054,0.245-0.225,0.292-0.264c0.054,0.093,0.211,0.208,0.387,0.271c-0.161,0.274-0.517,0.11-0.568,0.042
				c-0.058,0.096-0.071,0.153-0.014,0.274c0.073,0.164,0.366,0.319,0.518,0.359C32.495,41.154,32.284,41.39,32.21,41.439
				L32.21,41.439L32.21,41.439z M32.456,42.412c0.106-0.119,0.22-0.195,0.286-0.261c0.113,0.084,0.149,0.135,0.21,0.229
				c-0.002,0.151-0.034,0.471-0.024,0.582c0.006,0.108,0.438,0.182,0.458,0.021c0.019-0.159,0.005-0.364,0-0.458
				c-0.008-0.072-0.179-0.107-0.265-0.095c0.116-0.123,0.215-0.212,0.289-0.279c0.104,0.078,0.206,0.19,0.268,0.284
				c-0.002,0.162-0.031,0.541-0.008,0.641c0.029,0.104,0.019,0.111,0.097,0.163c-0.08,0.074-0.139,0.107-0.193,0.167
				c-0.082-0.024-0.219-0.146-0.21-0.255c-0.099,0.068-0.391,0.19-0.496,0.217c-0.105-0.11-0.185-0.138-0.192-0.271
				c-0.006-0.137,0.031-0.491-0.013-0.575C32.618,42.437,32.544,42.418,32.456,42.412L32.456,42.412L32.456,42.412z M33.828,41.278
				c0.01-0.345,0.239-0.638,0.609-0.77c0.292,0.098,0.415,0.393,0.424,0.592c0.007,0.162-0.1,0.375-0.173,0.506
				c-0.115,0.076-0.23,0.188-0.34,0.293C33.993,41.897,33.821,41.48,33.828,41.278L33.828,41.278L33.828,41.278z M33.874,42.609
				c0.088-0.051,0.298-0.242,0.37-0.292c0.121,0.094,0.2,0.187,0.259,0.254c0.08-0.042,0.206-0.133,0.267-0.183
				c0.106,0.075,0.225,0.173,0.269,0.225c0.056-0.052,0.125-0.011,0.061,0.053c-0.061,0.057-0.199,0.179-0.252,0.219
				c-0.078-0.041-0.211-0.194-0.255-0.227c-0.022,0.02-0.067,0.041-0.105,0.062c-0.002,0.084,0,0.775-0.005,0.86
				c-0.114,0.006-0.206,0.014-0.284-0.002c-0.007-0.109,0.004-0.709,0-0.805C34.191,42.654,34.001,42.612,33.874,42.609
				L33.874,42.609L33.874,42.609z M35.262,41.38c-0.089-0.006-0.176-0.019-0.224-0.033c-0.076-0.023-0.046-0.106,0.019-0.106
				c0.06,0.001,0.156,0.02,0.2,0.035C35.3,41.293,35.318,41.387,35.262,41.38L35.262,41.38L35.262,41.38z M35.268,41.174
				c-0.087-0.004-0.177-0.02-0.226-0.034c-0.076-0.02-0.043-0.107,0.018-0.107s0.158,0.018,0.204,0.035
				C35.308,41.086,35.327,41.179,35.268,41.174L35.268,41.174L35.268,41.174z M34.721,39.854l-0.266,0.291
				c-0.078-0.056-0.125-0.115-0.147-0.213c-0.204,0.04-0.343,0.161-0.437,0.233c-0.085-0.076-0.211-0.28-0.212-0.419
				c-0.004-0.14,0.106-0.345,0.183-0.417c0.008,0.003,0.015,0.008,0.022,0.012c-0.044-0.027-0.086-0.053-0.118-0.08
				c-0.028-0.026-0.039-0.095,0-0.15c0.053-0.07,0.219-0.277,0.381-0.302c0.086-0.011,0.232,0.011,0.433,0.19
				c-0.026,0.031-0.026,0.614-0.026,0.675C34.603,39.761,34.721,39.854,34.721,39.854L34.721,39.854L34.721,39.854z M32.958,40.905
				c-0.043,0.216,0.143,0.392,0.286,0.467c0.114,0.06,0.311,0.026,0.36,0.019c0.048-0.007,0.034-0.021,0.07-0.054
				c0.036-0.034,0.078-0.003,0.049,0.03c-0.032,0.035-0.321,0.309-0.4,0.364c-0.073,0.019-0.234,0.013-0.331-0.109
				c-0.171-0.214-0.295-0.292-0.241-0.682c0.038-0.265,0.479-0.494,0.581-0.55c0.041,0.04,0.241,0.251,0.329,0.322
				c-0.034,0.044-0.146,0.094-0.252,0.093c-0.109,0-0.183-0.091-0.255-0.171C33.101,40.68,32.989,40.745,32.958,40.905
				L32.958,40.905L32.958,40.905z M33.531,38.779c-0.049,0-0.547,0.06-0.547,0.06c-0.026,0.012,0.025,0.629,0.044,0.679
				c0.015,0.051,0.063,0.128,0.12,0.079c0.051-0.051,0.11,0.033,0.049,0.083c-0.035,0.027-0.145,0.246-0.195,0.278
				c-0.079,0.05-0.192-0.113-0.229-0.214c-0.06-0.168-0.1-0.589-0.099-0.869c0.018,0.004-0.232-0.099-0.12-0.144
				c0.219-0.094,0.43-0.385,0.457-0.46c0.027-0.076,0.097-0.044,0.061,0.032c-0.072,0.152-0.064,0.262-0.034,0.352
				c0.011,0.024,0.432,0.015,0.495,0.015C33.566,38.67,33.565,38.779,33.531,38.779L33.531,38.779L33.531,38.779z M32.369,39.541
				l-0.206,0.267h-0.191c-0.095-0.095-0.158-0.169-0.177-0.246l-0.011-0.642l-0.239-0.137c-0.044,0.06-0.133,0.06-0.099,0.01
				l0.33-0.289l0.072-0.008l0.21,0.21l-0.004,0.663C32.159,39.487,32.22,39.515,32.369,39.541L32.369,39.541L32.369,39.541z
				 M32.101,38.235l-0.115,0.1H31.89l-0.096-0.095l-0.004-0.186l0.155-0.132l0.156,0.151V38.235L32.101,38.235L32.101,38.235z
				 M31.438,38.221c-0.114,0.034-0.196,0.148-0.225,0.265c-0.022,0.119-0.412,1.249-0.458,1.322
				c-0.093-0.353-0.483-1.191-0.608-1.37c-0.107-0.158-0.21-0.128-0.309-0.131c-0.095,0-0.06-0.091,0.019-0.084
				c0.109,0.013,0.725,0.067,0.899,0.092c0.062,0.012,0.064,0.069-0.019,0.095c-0.042,0.011-0.141,0.059-0.141,0.107
				c0,0.066,0.224,0.558,0.285,0.65c0.052-0.126,0.263-0.664,0.221-0.782c-0.046-0.118-0.063-0.136-0.15-0.146
				c-0.088-0.01-0.088-0.062,0.018-0.078c0.105-0.017,0.397-0.042,0.486-0.031C31.546,38.139,31.557,38.189,31.438,38.221
				L31.438,38.221L31.438,38.221z M30.043,40.251c0.193-0.106,0.628-0.173,0.777-0.126c0.075,0.02,0.151,0,0.151-0.035
				c0-0.051,0.07-0.037,0.07,0c0,0.038-0.001,0.513-0.006,0.558c0,0.046-0.069,0.042-0.069,0c0-0.068,0-0.09-0.06-0.181
				c-0.174-0.262-0.654-0.284-0.892,0.031c-0.082,0.105-0.112,0.29-0.021,0.32c0.09,0.031,0.431,0.003,0.542-0.018
				c0.11-0.02,0.385-0.065,0.417-0.087c0.031-0.02,0.074-0.045,0.074,0.009c0,0.056,0,0.237-0.003,0.292
				c0,0.056-0.043,0.029-0.072,0.008c-0.032-0.019-0.29-0.045-0.402-0.052c-0.187-0.016-0.469-0.074-0.561-0.046
				c-0.093,0.027-0.02,0.172,0.06,0.28c0.235,0.317,0.673,0.327,0.849,0.068c0.064-0.094,0.064-0.113,0.064-0.179
				c0-0.042,0.071-0.049,0.071,0c0,0.043-0.003,0.437-0.003,0.476s-0.073,0.05-0.073-0.002c0.003-0.083-0.049-0.078-0.146-0.05
				c-0.254,0.067-0.594,0.09-0.796-0.024c-0.214-0.123-0.4-0.163-0.406-0.632C29.607,40.576,29.872,40.349,30.043,40.251
				L30.043,40.251L30.043,40.251z M29.694,41.693c0.063,0.006,0.254,0.01,0.322,0.01c-0.008,0.143-0.008,1.131,0,1.232
				c0.008,0.102,0.097,0.134,0.185,0.093c0.044-0.018,0.084,0.013,0.027,0.061c-0.098,0.072-0.216,0.244-0.27,0.31
				c-0.112-0.076-0.234-0.172-0.225-0.264C29.748,42.976,29.699,41.827,29.694,41.693L29.694,41.693L29.694,41.693z M31.13,43.888
				c0.673,0,3.323,0.727,4.6,0.64v-6.665c0,0-1.88,0.266-3.507-0.334c-1.329-0.491-3.155,0.366-3.155,0.366
				c0.002,0.227,0,6.536,0,6.536S29.74,43.888,31.13,43.888L31.13,43.888L31.13,43.888z M35.968,41.873v1.269
				c0,0,0.708-0.005,1.495-0.512c0.236-0.152,0.584-0.09,0.757,0.048h0.001c0,0-0.106-0.831-0.81-0.728
				C36.117,42.139,35.968,41.873,35.968,41.873L35.968,41.873L35.968,41.873z M38.22,40.036c0.011,0.082,0.02,0.139,0.025,0.177
				c-0.005-0.038-0.013-0.095-0.023-0.177c0,0-0.04-0.747-0.842-0.747c-0.261,0-0.578,0.318-1.39-0.034v1.269
				c0.329,0.097,1.231-0.417,1.591-0.575C37.838,39.836,38.203,39.91,38.22,40.036L38.22,40.036L38.22,40.036z M37.338,53.361
				c-0.053-2.006-1.285-4.232-0.949-3.819c0.839,1.037,1.108,3.283,1.683,5.216c0,0,0.369,0.188,0.291-2.265
				c-0.017-0.498-0.219-1.159-0.465-1.62c-0.487-0.911-1.474-2.447-1.445-2.458c0.238-0.193,0.817,1.131,1.321,1.653
				c0.327,0.337,1.234,0.668,1.297,0.624c-0.728-1.41-2.491-2.738-2.306-2.903c1.298,1.216,1.708,1.274,1.761,1.21l-1.168-1.135
				c-0.33-0.443-0.767-0.783-0.706-0.77c0.521,0.116-0.272-0.433-0.885-0.601c-0.11-0.03-0.288-0.04-0.293-0.095
				c-0.01-0.095,0.144-0.055,0.273-0.095c0.084-0.024,0.169-0.089,0.171-0.209c-0.234,0.051-0.474-0.003-0.674-0.094
				c-0.414-0.192-1.153-0.415-1.495-0.281c-0.2,0.079-0.237,0.067-0.452,0.233c-0.094-0.04-0.355-0.207-0.724,0.239
				c-0.114,0.138-0.251,0.298-0.258,0.416c-0.016,0.298,0.006,0.016,0.08,0.298c0.029,0.119-0.105,0.336-0.648,0.518
				c-0.21,0.071-0.158,0.278-0.158,0.278c0.104-0.05,0.269-0.167,0.523-0.048c0.497,0.233,0.594-0.135,0.903-0.397
				c0,0-0.085,0.331-0.001,0.348c0.386,0.08,0.257,0.37,0.208,0.413c-0.487,0.434-0.283,0.598-0.457,0.866
				c-0.163,0.253-0.416,0.349-0.792,0.337c-0.52-0.017,0.68-0.802-0.467-1.127c0.18,0.3,0.253,0.542-0.148,0.774
				c-0.253,0.147-0.124,0.894-0.773,0.547c0,0-0.053,0.553-0.127,0.577c0.88,0.771,0.388,1.191,0.433,2.294
				c0.275,0.702-0.027,1.036-0.096,1.073c0.044,0.477,0.089,0.736,0.385,1.123c0.215,0.28-0.02,0.711,0.2,1.012
				c0.202-0.717,0.418-0.417,0.477-1.412c0.081-0.167,0.416-0.462,0.606-0.48c-0.003,0.602,0.219,1.146,0.171,1.399
				c0,0,0.506-0.092,0.663-0.037c0.125,0.043,0.22,0.206,0.224,0.306c-0.172,0.108-0.173,0.066-0.432,0.258
				c-0.455,0.33-0.664,1.004-0.664,1.004c-0.001,0.002,1.067-0.85,1.144-1.004c0.061-0.123,0.119-0.311,0.176-0.504
				c0.006-0.021-0.551-0.346-0.704-0.644c-0.478-0.93,0.74,0.55,0.769,0.421c0.072-0.32,0.295-0.623,0.295-0.623
				c-0.078-0.092-0.269-0.148-0.56-0.66c-0.666-1.175,0.772,0.5,0.772,0.5c0.381-0.219,0.383,0.072,0.432,0.381
				c0.005,0.029,0.647,0.504,0.678,0.533c0.182-0.168,0.313-0.397,0.387-0.556c0.01-0.021-1.161-1.06-1.361-1.401
				c-1.613-2.767,1.305,1.229,1.443,1.117c0.077-0.217,0.104-0.514,0.095-0.917c0-0.01-0.549-0.389-0.9-0.969
				c-1.355-2.238,0.889,0.668,0.888,0.646c-0.027-0.479-0.419-2.558-0.148-1.933c0.139,0.321,0.576,1.647,0.496,3.001
				C36.475,53.674,37.101,53.425,37.338,53.361L37.338,53.361L37.338,53.361z M34.796,55.568c0,0-0.215-0.162-0.227-0.131
				c-0.036,0.095-0.082,0.201-0.145,0.326C34.367,55.878,34.537,55.797,34.796,55.568L34.796,55.568L34.796,55.568z M34.71,54.734
				c-0.027,0.182-0.027,0.324-0.084,0.529c-0.005,0.021,0.205,0.104,0.3,0.188c0.134-0.125,0.255-0.188,0.396-0.364
				c-0.031-0.021-0.592-0.509-0.594-0.487C34.724,54.665,34.722,54.656,34.71,54.734L34.71,54.734L34.71,54.734z M36.447,55.889
				c0.25-0.209,0.393-0.566,0.714-0.675c-0.243-0.222-0.48,0.222-0.604,0.067c0.222-0.354,0.364-0.621,0.388-1.061
				c0.013-0.238,0.288-0.459,0.353-0.591c-0.265,0.039-0.972,0.456-1.115,0.696c-0.476,0.629-0.451,1.218-2.44,2.096
				c-0.099,0,0.368-0.34,0.5-0.732c0.062-0.184,0.325-1.035,0.144-1.446c-0.411,0.417-0.327,0.553-0.443,0.862
				c-0.296,0.812-0.459,0.891-1.201,1.393c-0.099,0.066-0.667,0.945-1.406,0.988c0.074-0.021,0.032-0.204,0.281-0.367
				c0.827-0.541,0.512-1.711,1.591-1.905c-0.538-0.19-0.905,0.332-1.004,0.279c0.435-0.603,0.052-1.111,0.116-1.604
				c-0.145,0.077-0.291,0.254-0.304,0.399c-0.082,0.876-0.491,1.028-0.532,1.405c0.087,0.625-0.415,1.111-0.783,1.552
				c-0.071-0.364,0.024-0.688,0.482-0.989c0.253-0.166-0.024-0.664-0.024-0.664c-0.103,0.545-0.41,0.713-0.601,0.739
				c-0.166,0.024,0.585-0.765,0.499-1.483c-0.039-0.32-0.131-0.178-0.182-0.537c-0.648,0.721-0.174,1.166-0.838,1.998
				c-0.314,0.393-0.433,1.084-0.475,1.104c0.007-1.031,0.041-0.729,0.499-1.566c0.377-0.688-0.021-1.332-0.072-1.746
				c-0.825,0.566-0.757,1.664-0.778,1.426c-0.021-0.232-0.123-0.645-0.013-1.017c0.184-0.616-0.206-1.558-0.206-1.558
				c-1.155,1.811-0.186,3.927-0.258,3.9c-0.501-0.785-0.867-0.815-0.976-1.418c-0.06-0.326-0.655-2.119-1.748-2.151
				c0.551,0.475,0.418,0.54,0.454,1.317c-0.351,1.945,2.372,2.146,2.189,3.156c-0.373-0.598-0.942-0.852-1.8-1.316
				c-0.38-0.303-0.809-0.436-0.833-0.906c0.045-0.342,0.065-0.271,0.006-0.717c-0.042-0.318-0.355-0.127-0.585-0.789
				c-0.491,0.443-0.311,0.947-0.271,1.234c0.012,0.081,0.067,0.385-0.008,0.562c-0.175-0.121-0.296-0.369-0.491-0.618
				c-0.353-0.451-0.349-0.999-0.525-1.38c-0.082-0.177-0.199-0.416-0.268-0.419l-0.013,0.007c-0.086,0.708-0.044,1.325,0.277,1.854
				c0,0-0.088,0.152-0.16,0.191c-0.305-0.08-0.738-0.337-0.914-0.834c-0.379,0.318-0.11,0.729-0.128,0.723
				c-0.852-0.436,0.01-2.127-1.204-2.078c0.299,0.326,0.11,0.744,0.084,1.136c-0.007,0.635,0.799,1.128,0.799,1.128
				c-0.899-0.305-1.084,0.117-1.073,0.117c0,0,1.325,0.574,3.416,0.793c0.269,0.027,0.652,0.344,0.589,0.344
				c-0.268-0.021-0.8-0.367-1.566,0.312c0.451,0.012,0.76,0.746,1.495,0.325c1.892-0.536,2.593,0.404,2.901,0.646
				c-0.066,0.119-1.454-0.872-2.556-0.215c-0.586,0.35-1.527,0.033-2.264-0.52c0.298,0.76,1.565,1.616,1.983,1.616
				c0.514,0.001,1.17-0.67,1.916-0.634c1.193,0.06,1.359,1.125,1.227,1.043c0,0-0.938-1.553-2.146,0.105
				c0.564-0.259,1.318-0.193,1.979,0.12c0.089,0.043-0.162,0.32-0.339,0.522c-0.116,0.131-0.62,0.877-1.164,0.143
				c-0.082-0.109-0.341-0.791-2.043-0.646c0.643,0.291,1.353,1.052,1.703,1.398c0.892,0.883,2.241-1.072,2.292-0.854
				c0,0.438,0.226,0.651,0.344,0.89c0.299,0.599-0.38,0.498-0.748,0.344c0,0,0.704,1.097,1.293,0.486
				c0.652-0.677-0.854-1.187-0.376-1.724c0.27-0.304,1.217,0.677,1.645,0.68c1.158,0.129,1.097-0.971,1.708-0.938
				c-0.574-0.584-1.186-0.267-1.313-0.117c-0.385,0.449-0.833,0.147-1.142-0.095c-0.17-0.223-0.453-0.258-0.706-0.188
				c-0.12,0.01,0.243-0.426,0.714-0.334c1.064,0.207,2.132-0.176,2.394-0.321c0.428-0.241,0.669-0.649,1.148-1.104
				c-0.15,0.027-1.035,0.521-1.319,0.664c-0.854,0.43-1.387-0.127-1.483-0.125c-0.164,0.004-0.122-0.123,0.136-0.207
				c0.875-0.194,1.479-0.967,2.313-1.271C34.5,56.38,35.668,56.658,36.447,55.889L36.447,55.889L36.447,55.889z M36.112,57.389
				c0.349-0.5,0.549-1.037,0.667-1.615c-0.203,0.265-0.501,0.496-0.8,0.615C35.769,57.055,35.869,57.742,36.112,57.389
				L36.112,57.389L36.112,57.389z M39.283,51.885c-0.87,9.352-8.696,10.941-10.363,11.245c-0.089,0.017-9.424-1.167-10.365-11.243
				c0-0.003,0-14.866,0-14.866s8.916-1.151,20.728,0V51.885L39.283,51.885L39.283,51.885z M39.827,51.971l-0.001-15.483
				c-12.438-1.199-21.826,0-21.826,0s0,15.481,0,15.485c0.991,10.495,10.821,11.729,10.915,11.711
				C30.67,63.367,38.911,61.71,39.827,51.971L39.827,51.971L39.827,51.971z M45.606,55.721c0,2.867,1.378,4.891,3.157,6.113
				c1.623,1.089,3.534,1.488,5.534,1.488c1.423,0,3.023-0.333,3.512-0.512c0.245-0.088,0.511-0.178,0.778-0.223
				c0.333-0.422,0.911-1.889,1.067-3.045c-0.089-0.154-0.422-0.2-0.578-0.089c-0.512,1.312-1.778,3.179-4.646,3.179
				c-3.646,0-6.602-2.578-6.602-7.247c0-4.601,2.889-6.757,6.29-6.757c3.223,0,4.224,1.733,4.557,3.245
				c0.155,0.133,0.489,0.11,0.6-0.044c-0.178-1.356-0.289-2.756-0.311-3.268c-0.2,0.022-0.355-0.022-0.622-0.089
				c-1.045-0.289-2.734-0.533-3.935-0.533c-2.312,0-4.378,0.622-6.001,1.889C46.718,51.143,45.606,53.254,45.606,55.721
				L45.606,55.721L45.606,55.721z M51.916,36.47l0.007-0.026l-0.012-0.024c-0.036-0.07-0.139-0.076-0.17-0.076
				c-0.023,0-0.057,0.002-0.087,0.015l-0.023,0.009l-0.012,0.021c-0.119,0.207-0.169,0.223-0.661,0.223h-3.829
				c-0.415,0-0.6-0.021-0.639-0.229l-0.004-0.022l-0.016-0.016c-0.026-0.025-0.067-0.038-0.128-0.038
				c-0.022,0-0.097,0.002-0.138,0.03l-0.025,0.017l-0.005,0.03c-0.065,0.369-0.202,0.955-0.349,1.369l-0.01,0.029l0.014,0.027
				c0.056,0.112,0.246,0.166,0.347,0.09l0.015-0.011l0.007-0.017c0.094-0.214,0.183-0.416,0.399-0.615
				c0.204-0.188,0.667-0.213,1.091-0.213h0.509c0.207,0,0.207,0,0.207,0.225v4.141c0,1.003-0.058,1.047-0.509,1.087l-0.333,0.027
				l-0.032,0.01c-0.055,0.034-0.086,0.103-0.083,0.185c0.003,0.062,0.027,0.14,0.088,0.17l0.016,0.008h0.018
				c0.567-0.017,0.909-0.027,1.285-0.027c0.362,0,0.661,0.009,1.211,0.027h0.018l0.016-0.008c0.061-0.03,0.087-0.113,0.091-0.18
				c0.005-0.08-0.019-0.144-0.065-0.174l-0.329-0.039c-0.463-0.04-0.491-0.101-0.491-1.087v-4.15c0-0.095,0-0.184,0.015-0.2
				c0.016-0.016,0.116-0.016,0.183-0.016h0.657c0.496,0,0.834,0.071,1.032,0.218c0.088,0.064,0.164,0.299,0.203,0.627l0.002,0.021
				l0.013,0.016c0.034,0.041,0.097,0.066,0.168,0.066c0.088,0,0.161-0.038,0.191-0.099l0.009-0.018l-0.002-0.021
				C51.751,37.585,51.816,36.839,51.916,36.47L51.916,36.47L51.916,36.47z M59.53,41.407v-3.334c0-0.987,0.028-1.048,0.491-1.097
				l0.194-0.019l0.033-0.011c0.046-0.031,0.07-0.095,0.065-0.175c-0.002-0.033-0.015-0.142-0.09-0.18l-0.017-0.008h-0.019
				c-0.448,0.02-0.753,0.027-1.09,0.027c-0.401,0-0.725-0.01-1.117-0.027h-0.018l-0.017,0.008c-0.076,0.038-0.089,0.146-0.091,0.179
				c-0.005,0.081,0.018,0.145,0.064,0.176l0.208,0.03c0.473,0.048,0.501,0.11,0.501,1.097v1.064c0,0.225,0,0.225-0.392,0.225h-2.649
				c-0.392,0-0.392,0-0.392-0.225v-1.064c0-0.987,0.028-1.048,0.492-1.097l0.176-0.019l0.032-0.011
				c0.046-0.031,0.07-0.095,0.065-0.176c-0.002-0.032-0.015-0.141-0.091-0.179l-0.017-0.008h-0.018
				c-0.422,0.02-0.732,0.027-1.071,0.027c-0.242,0-0.453-0.006-0.683-0.014c-0.148-0.005-0.304-0.01-0.482-0.014h-0.018
				l-0.015,0.007c-0.076,0.038-0.089,0.146-0.091,0.178c-0.006,0.082,0.018,0.146,0.064,0.177l0.016,0.011l0.259,0.02
				c0.408,0.032,0.481,0.116,0.481,1.097v3.334c0,0.964-0.018,1.005-0.479,1.087l-0.179,0.032l-0.016,0.016
				c-0.053,0.053-0.061,0.139-0.051,0.203c0.011,0.068,0.043,0.12,0.087,0.143l0.016,0.008h0.018
				c0.127-0.003,0.249-0.007,0.371-0.012c0.219-0.008,0.445-0.016,0.702-0.016c0.348,0,0.644,0.008,1.174,0.027l0.018,0.001
				l0.016-0.008c0.061-0.03,0.087-0.113,0.09-0.18c0.005-0.08-0.019-0.144-0.065-0.174l-0.3-0.039
				c-0.444-0.048-0.501-0.092-0.501-1.087V40.1c0-0.225,0-0.225,0.392-0.225h2.649c0.392,0,0.392,0,0.392,0.225v1.307
				c0,0.985-0.01,1.005-0.505,1.087l-0.199,0.031l-0.016,0.016c-0.053,0.053-0.061,0.14-0.05,0.203
				c0.011,0.068,0.043,0.12,0.088,0.142l0.016,0.008l0.019-0.001c0.443-0.02,0.767-0.027,1.117-0.027
				c0.365,0,0.687,0.01,1.118,0.027l0.018,0.001l0.016-0.008c0.077-0.038,0.089-0.146,0.091-0.179
				c0.005-0.081-0.018-0.145-0.064-0.175l-0.253-0.039C59.553,42.437,59.53,42.386,59.53,41.407L59.53,41.407L59.53,41.407z
				 M67.271,41.55l0.004-0.022l-0.009-0.021c-0.04-0.089-0.138-0.129-0.218-0.129c-0.046,0-0.087,0.012-0.12,0.035l-0.022,0.026
				c-0.266,0.53-0.504,0.799-0.626,0.866c-0.199,0.1-0.479,0.131-1.154,0.131c-0.771,0-0.97-0.092-1.068-0.19
				c-0.131-0.14-0.157-0.441-0.157-0.915v-1.306c0-0.179,0-0.179,0.234-0.179h0.538c0.323,0,0.565,0.007,0.695,0.044
				c0.129,0.032,0.195,0.116,0.235,0.299l0.083,0.361l0.015,0.029c0.035,0.042,0.1,0.067,0.173,0.067
				c0.084,0,0.154-0.032,0.184-0.085l0.01-0.017v-0.019c0-0.09-0.007-0.21-0.016-0.344c-0.01-0.169-0.022-0.36-0.022-0.545
				c0-0.194,0.012-0.392,0.022-0.567c0.008-0.142,0.016-0.269,0.016-0.368v-0.019l-0.01-0.017c-0.03-0.054-0.1-0.086-0.184-0.086
				c-0.074,0-0.139,0.025-0.173,0.066l-0.089,0.411c-0.042,0.212-0.094,0.244-0.175,0.271c-0.099,0.033-0.377,0.052-0.764,0.052
				h-0.538c-0.234,0-0.234,0-0.234-0.188V37.34c0-0.299,0-0.299,0.207-0.299h0.667c0.394,0,0.694,0.009,0.881,0.054
				c0.422,0.106,0.507,0.373,0.636,0.777l0.018,0.055l0.013,0.023c0.032,0.039,0.085,0.06,0.151,0.06
				c0.063,0,0.153-0.022,0.194-0.083l0.014-0.021l-0.012-0.137c-0.048-0.54-0.092-0.997-0.142-1.138l-0.021-0.061l-0.062,0.015
				c-0.103,0.025-0.678,0.025-1.233,0.025h-1.741c-0.356,0-0.662-0.007-1.089-0.027h-0.019l-0.016,0.008
				c-0.076,0.038-0.089,0.146-0.091,0.178c-0.006,0.081,0.018,0.146,0.064,0.176l0.18,0.03c0.472,0.057,0.5,0.119,0.5,1.098v3.334
				c0,1.003-0.058,1.047-0.51,1.087l-0.331,0.03l-0.018,0.018c-0.053,0.053-0.061,0.139-0.051,0.203
				c0.011,0.068,0.043,0.12,0.087,0.143l0.016,0.008h0.018c0.535-0.018,0.857-0.027,1.257-0.027h0.834
				c0.808,0,1.619,0.009,2.48,0.027l0.046,0.001l0.02-0.042C66.973,42.595,67.206,41.876,67.271,41.55L67.271,41.55L67.271,41.55z
				 M68.167,48.786c0.133-0.089,0.089-0.489-0.044-0.556c-0.956,0.045-1.711,0.067-2.578,0.067c-0.956,0-1.712-0.044-2.801-0.067
				c-0.133,0.067-0.178,0.467-0.044,0.556l0.578,0.044c1.156,0.089,1.312,0.467,1.312,2.801v8.002c0,2.334-0.045,2.557-1.29,2.778
				l-0.377,0.065c-0.133,0.135-0.089,0.489,0.044,0.557c0.867-0.022,1.623-0.066,2.579-0.066c0.867,0,1.622,0.021,2.822,0.066
				c0.134-0.066,0.178-0.467,0.045-0.557l-0.645-0.065c-1.245-0.134-1.356-0.444-1.356-2.778v-3.135
				c0-0.666,0.044-0.711,1.111-0.711h6.357c1.067,0,1.111,0.045,1.111,0.711v3.135c0,2.334,0,2.557-1.356,2.778l-0.422,0.065
				c-0.133,0.135-0.089,0.489,0.044,0.557c0.978-0.044,1.778-0.066,2.689-0.066c0.867,0,1.623,0.021,2.69,0.066
				c0.133-0.066,0.177-0.467,0.044-0.557l-0.534-0.065c-1.29-0.155-1.333-0.444-1.333-2.778v-8.002c0-2.333,0.044-2.667,1.333-2.801
				l0.467-0.044c0.133-0.089,0.089-0.489-0.044-0.556c-1,0.045-1.756,0.067-2.623,0.067c-0.911,0-1.667-0.022-2.689-0.067
				c-0.133,0.067-0.178,0.467-0.044,0.556l0.422,0.044c1.312,0.133,1.356,0.467,1.356,2.801v2.557c0,0.688-0.044,0.711-1.111,0.711
				h-6.357c-1.067,0-1.111-0.021-1.111-0.711v-2.557c0-2.333,0.044-2.667,1.333-2.801L68.167,48.786L68.167,48.786L68.167,48.786z
				 M78.814,36.923c0.041-0.05,0.061-0.126,0.049-0.195c-0.009-0.058-0.04-0.105-0.084-0.134l-0.02-0.012l-0.022,0.001
				c-0.322,0.018-0.571,0.027-0.968,0.027c-0.355,0-0.699-0.009-1.052-0.027l-0.024-0.001l-0.02,0.013
				c-0.043,0.029-0.072,0.081-0.082,0.144c-0.009,0.07,0.008,0.136,0.048,0.184l0.019,0.022l0.261,0.02
				c0.212,0.018,0.357,0.074,0.407,0.159c0.108,0.19,0.167,0.859,0.167,1.882v1.065c0,1.091-0.309,2.392-1.781,2.392
				c-1.235,0-1.81-0.763-1.81-2.401v-2c0-0.985,0.032-1.057,0.49-1.097l0.241-0.019l0.016-0.01c0.046-0.031,0.07-0.093,0.064-0.171
				c-0.004-0.064-0.03-0.145-0.091-0.174l-0.017-0.008h-0.018c-0.439,0.018-0.75,0.027-1.136,0.027c-0.38,0-0.708-0.01-1.146-0.027
				h-0.018l-0.016,0.008c-0.061,0.03-0.087,0.109-0.092,0.173c-0.005,0.078,0.018,0.141,0.064,0.172l0.016,0.011l0.25,0.019
				c0.458,0.04,0.49,0.112,0.49,1.097v2.186c0,1.12,0.23,1.811,0.747,2.24c0.408,0.349,1.006,0.526,1.778,0.526
				c0.729,0,1.428-0.268,1.821-0.699c0.449-0.481,0.667-1.221,0.667-2.261v-1.047c0-0.469,0-1.569,0.124-1.86
				c0.043-0.093,0.202-0.165,0.404-0.181l0.252-0.02L78.814,36.923L78.814,36.923L78.814,36.923z M87.117,36.937
				c0.044-0.045,0.067-0.117,0.059-0.189c-0.008-0.066-0.041-0.122-0.09-0.153l-0.02-0.012l-0.023,0.001
				c-0.304,0.018-0.545,0.027-0.95,0.027c-0.327,0-0.632-0.007-1.089-0.027h-0.015l-0.013,0.005
				c-0.054,0.02-0.092,0.071-0.104,0.139c-0.015,0.083,0.01,0.167,0.064,0.213l0.017,0.014l0.178,0.021
				c0.318,0.04,0.48,0.087,0.523,0.153c0.111,0.175,0.174,0.86,0.174,1.879v1.982c0,0.09,0,0.193-0.006,0.265
				c-0.321-0.332-0.657-0.708-1.075-1.175l-1.289-1.446c-0.916-1.027-1.44-1.702-1.559-2.003l-0.021-0.053l-0.056,0.009
				c-0.111,0.017-0.263,0.026-0.416,0.026c-0.162,0-0.655,0-1.041-0.027l-0.02-0.001l-0.018,0.009
				c-0.049,0.024-0.083,0.076-0.094,0.14c-0.013,0.077,0.01,0.158,0.057,0.205l0.018,0.018l0.182,0.021
				c0.247,0.031,0.431,0.101,0.53,0.2c0.173,0.189,0.186,0.36,0.186,0.619v2.76c0,0.448,0.001,1.497-0.115,1.795
				c-0.021,0.047-0.1,0.111-0.35,0.144l-0.275,0.03l-0.018,0.018c-0.041,0.041-0.062,0.107-0.057,0.177
				c0.005,0.07,0.037,0.129,0.084,0.163l0.021,0.015l0.024-0.001c0.322-0.018,0.57-0.027,0.959-0.027
				c0.313,0,0.627,0.008,1.081,0.027l0.024,0.001l0.02-0.014c0.043-0.031,0.073-0.08,0.082-0.139
				c0.01-0.068-0.007-0.138-0.047-0.193l-0.019-0.025l-0.32-0.03c-0.222-0.019-0.377-0.07-0.416-0.141
				c-0.1-0.176-0.157-0.862-0.157-1.882v-2.019c0-0.166,0.003-0.342,0.02-0.468c0.147,0.165,0.392,0.455,0.613,0.715
				c0.151,0.179,0.292,0.345,0.382,0.449l2.148,2.444c0.714,0.812,1.057,1.216,1.181,1.393l0.021,0.03h0.037
				c0.122,0,0.212-0.057,0.244-0.151l0.005-0.015l-0.002-0.016c-0.012-0.108-0.027-0.475-0.027-1.612v-2.339
				c-0.002-0.475-0.005-1.462,0.131-1.75c0.012-0.023,0.123-0.103,0.465-0.156l0.153-0.021L87.117,36.937L87.117,36.937
				L87.117,36.937z M85.971,59.588v-7.912c0-2.356,0.044-2.734,1.355-2.846l0.556-0.044c0.133-0.089,0.088-0.489-0.045-0.556
				c-1.111,0.045-1.867,0.067-2.756,0.067c-0.934,0-1.689-0.022-2.801-0.067c-0.133,0.067-0.178,0.467-0.044,0.556l0.556,0.044
				c1.312,0.111,1.356,0.489,1.356,2.846v7.912c0,2.355-0.044,2.668-1.356,2.823l-0.556,0.065c-0.133,0.135-0.089,0.489,0.044,0.557
				c1.111-0.044,1.867-0.066,2.801-0.066c0.889,0,1.645,0.022,2.756,0.066c0.133-0.066,0.178-0.467,0.045-0.557l-0.556-0.065
				C86.016,62.256,85.971,61.943,85.971,59.588L85.971,59.588L85.971,59.588z M90.62,41.388v-3.297c0-1.002,0.033-1.075,0.5-1.115
				l0.25-0.02l0.015-0.01c0.046-0.031,0.07-0.096,0.064-0.177c-0.002-0.032-0.015-0.141-0.091-0.178l-0.016-0.008h-0.018
				c-0.438,0.018-0.765,0.027-1.146,0.027c-0.398,0-0.716-0.009-1.164-0.027h-0.018l-0.016,0.008
				c-0.077,0.038-0.089,0.146-0.092,0.179c-0.005,0.081,0.019,0.145,0.065,0.176l0.015,0.01l0.25,0.02
				c0.467,0.04,0.5,0.113,0.5,1.115v3.297c0,0.997-0.023,1.049-0.502,1.106l-0.256,0.031l-0.017,0.017
				c-0.053,0.053-0.061,0.139-0.051,0.203c0.011,0.068,0.043,0.121,0.088,0.143l0.016,0.008l0.018-0.001
				c0.471-0.018,0.78-0.027,1.164-0.027c0.366,0,0.686,0.009,1.146,0.027l0.018,0.001l0.016-0.008
				c0.077-0.038,0.09-0.146,0.091-0.179c0.005-0.081-0.019-0.144-0.065-0.175l-0.262-0.039C90.644,42.437,90.62,42.385,90.62,41.388
				L90.62,41.388L90.62,41.388z M93.462,49.83c-1.69,1.312-2.801,3.424-2.801,5.891c0,2.867,1.378,4.891,3.156,6.113
				c1.623,1.089,3.534,1.488,5.535,1.488c1.422,0,3.023-0.333,3.511-0.512c0.245-0.088,0.512-0.178,0.778-0.223
				c0.333-0.422,0.912-1.889,1.067-3.045c-0.089-0.154-0.423-0.2-0.578-0.089c-0.511,1.312-1.778,3.179-4.646,3.179
				c-3.645,0-6.602-2.578-6.602-7.247c0-4.601,2.89-6.757,6.291-6.757c3.223,0,4.223,1.733,4.557,3.245
				c0.155,0.133,0.489,0.11,0.6-0.044c-0.178-1.356-0.289-2.756-0.311-3.268c-0.2,0.022-0.355-0.022-0.622-0.089
				c-1.045-0.289-2.734-0.533-3.935-0.533C97.151,47.941,95.084,48.563,93.462,49.83L93.462,49.83L93.462,49.83z M99.509,36.937
				c0.05-0.051,0.058-0.139,0.05-0.199c-0.009-0.067-0.04-0.119-0.084-0.145l-0.019-0.011l-0.021,0.001
				c-0.311,0.019-0.595,0.027-0.895,0.027c-0.364,0-0.713-0.01-0.958-0.027l-0.022-0.001l-0.019,0.011
				c-0.051,0.029-0.086,0.091-0.093,0.164c-0.008,0.074,0.016,0.142,0.063,0.183l0.017,0.015l0.188,0.021
				c0.324,0.037,0.354,0.105,0.354,0.105c0,0.061-0.008,0.153-0.078,0.335c-0.159,0.403-0.601,1.464-0.86,2.072
				c-0.068,0.158-0.155,0.363-0.251,0.59c-0.175,0.416-0.389,0.923-0.571,1.321c-0.438-1.007-0.842-2.017-1.251-3.049
				c-0.271-0.665-0.427-1.149-0.456-1.269c0.014-0.029,0.094-0.069,0.371-0.106l0.16-0.021l0.016-0.014
				c0.047-0.041,0.071-0.109,0.063-0.183c-0.007-0.074-0.042-0.135-0.093-0.165l-0.018-0.011l-0.021,0.001
				c-0.413,0.02-0.736,0.027-1.118,0.027c-0.387,0-0.682-0.008-0.958-0.027l-0.023-0.001l-0.02,0.012
				c-0.054,0.034-0.089,0.096-0.095,0.167c-0.005,0.071,0.02,0.138,0.067,0.179l0.017,0.015l0.188,0.021
				c0.36,0.042,0.483,0.207,0.692,0.716l1.63,4.019c0.194,0.481,0.336,0.893,0.422,1.223l0.009,0.035l0.033,0.014
				c0.054,0.021,0.11,0.033,0.166,0.033c0.053,0,0.104-0.014,0.142-0.04l0.021-0.014l0.007-0.023c0.159-0.497,0.604-1.589,0.96-2.41
				l0.5-1.139c0.429-0.974,0.787-1.708,1.033-2.122c0.118-0.19,0.242-0.275,0.426-0.291l0.305-0.02L99.509,36.937L99.509,36.937
				L99.509,36.937z M105.863,41.55l0.004-0.022l-0.009-0.021c-0.04-0.089-0.138-0.129-0.218-0.129c-0.046,0-0.087,0.012-0.12,0.035
				l-0.022,0.026c-0.265,0.53-0.504,0.799-0.626,0.866c-0.199,0.1-0.479,0.131-1.154,0.131c-0.771,0-0.97-0.092-1.068-0.19
				c-0.131-0.139-0.157-0.441-0.157-0.915v-1.306c0-0.179,0-0.179,0.234-0.179h0.538c0.324,0,0.565,0.007,0.696,0.044
				c0.128,0.032,0.194,0.116,0.235,0.299l0.083,0.361l0.015,0.029c0.035,0.042,0.1,0.067,0.173,0.067
				c0.085,0,0.154-0.032,0.185-0.085l0.009-0.017v-0.019c0-0.09-0.007-0.21-0.015-0.344c-0.01-0.169-0.022-0.36-0.022-0.545
				c0-0.194,0.012-0.392,0.021-0.567c0.008-0.142,0.016-0.269,0.016-0.368v-0.019l-0.009-0.017c-0.031-0.054-0.1-0.086-0.185-0.086
				c-0.074,0-0.139,0.025-0.173,0.066l-0.089,0.411c-0.042,0.212-0.094,0.244-0.175,0.271c-0.099,0.033-0.378,0.052-0.765,0.052
				h-0.538c-0.234,0-0.234,0-0.234-0.188V37.34c0-0.299,0-0.299,0.207-0.299h0.667c0.394,0,0.694,0.009,0.881,0.054
				c0.422,0.106,0.507,0.373,0.636,0.777l0.018,0.056l0.013,0.023c0.032,0.039,0.085,0.06,0.151,0.06
				c0.064,0,0.153-0.021,0.194-0.083l0.014-0.021l-0.012-0.136c-0.048-0.54-0.092-0.998-0.142-1.139l-0.021-0.061l-0.062,0.015
				c-0.103,0.025-0.677,0.025-1.232,0.025h-1.742c-0.357,0-0.663-0.007-1.089-0.027h-0.018l-0.017,0.008
				c-0.076,0.038-0.089,0.146-0.091,0.178c-0.005,0.081,0.018,0.146,0.064,0.176l0.18,0.03c0.474,0.056,0.502,0.118,0.502,1.097
				v3.334c0,1.003-0.058,1.047-0.51,1.087l-0.331,0.03l-0.018,0.018c-0.053,0.052-0.061,0.139-0.051,0.202
				c0.011,0.069,0.043,0.121,0.087,0.144l0.016,0.008h0.018c0.535-0.018,0.857-0.027,1.257-0.027h0.833
				c0.808,0,1.62,0.009,2.481,0.027l0.046,0.001l0.02-0.042C105.565,42.594,105.798,41.875,105.863,41.55L105.863,41.55
				L105.863,41.55z M110.649,39.46c-0.265,0.201-0.625,0.227-0.91,0.227c-0.418,0-0.547-0.016-0.585-0.027
				c-0.011-0.039-0.011-0.148-0.011-0.254v-2.167c0-0.208,0-0.226,0.531-0.226c1.042,0,1.411,0.73,1.411,1.355
				C111.084,38.882,110.945,39.229,110.649,39.46L110.649,39.46L110.649,39.46z M113.44,42.907c0.043-0.034,0.065-0.089,0.057-0.143
				c-0.008-0.051-0.039-0.091-0.084-0.109l-0.021-0.005c-0.221-0.016-0.444-0.106-0.599-0.243c-0.638-0.535-1.145-1.316-1.846-2.447
				c-0.049-0.078-0.056-0.114-0.055-0.129c0.308-0.128,1.177-0.582,1.177-1.602c0-0.776-0.439-1.167-0.807-1.359
				c-0.464-0.252-1.06-0.286-1.581-0.286c-0.848,0-1.506,0.024-2.071,0.074l-0.025,0.007c-0.054,0.027-0.089,0.086-0.095,0.16
				c-0.006,0.08,0.023,0.156,0.076,0.194l0.015,0.011l0.315,0.039c0.302,0.037,0.346,0.102,0.346,1.013v3.326
				c0,0.979-0.023,1.03-0.493,1.087l-0.259,0.031l-0.018,0.021c-0.053,0.061-0.058,0.149-0.045,0.212
				c0.013,0.062,0.043,0.108,0.086,0.129l0.016,0.008l0.018-0.001c0.412-0.017,0.749-0.027,1.155-0.027
				c0.383,0,0.705,0.01,1.099,0.027l0.019,0.001l0.017-0.008c0.068-0.034,0.085-0.123,0.089-0.16
				c0.009-0.082-0.012-0.153-0.057-0.19l-0.016-0.013l-0.214-0.031c-0.476-0.066-0.495-0.106-0.495-1.087V40.24
				c0-0.132,0-0.132,0.364-0.132c0.356,0,0.477,0.085,0.599,0.266c0.141,0.204,0.305,0.463,0.463,0.714
				c0.166,0.262,0.322,0.509,0.445,0.685c0.636,0.906,1.116,1.197,1.976,1.197c0.179,0,0.335-0.018,0.429-0.049L113.44,42.907
				L113.44,42.907L113.44,42.907z M115.773,37.85c0-0.357,0.134-0.957,1.032-0.957c0.817,0,1.065,0.531,1.191,0.994l0.013,0.026
				c0.03,0.036,0.08,0.056,0.14,0.056c0.07,0,0.164-0.028,0.205-0.09l0.012-0.018V37.84c0-0.378-0.078-0.907-0.17-1.155
				l-0.017-0.046h-0.05c-0.065,0-0.188-0.016-0.307-0.053c-0.221-0.059-0.568-0.123-0.878-0.123c-1.173,0-1.961,0.669-1.961,1.664
				c0,0.846,0.646,1.398,1.032,1.653l0.88,0.575c0.64,0.412,0.728,0.838,0.728,1.237c0,0.495-0.336,0.994-1.087,0.994
				c-0.937,0-1.347-0.723-1.525-1.329l-0.009-0.02c-0.027-0.042-0.077-0.064-0.141-0.064c-0.062,0-0.15,0.023-0.198,0.09
				l-0.014,0.02l0.001,0.024c0.017,0.418,0.136,1.104,0.258,1.328l0.009,0.017l0.017,0.01c0.182,0.106,0.69,0.352,1.48,0.352
				c1.223,0,2.044-0.717,2.044-1.785c0-0.741-0.39-1.342-1.191-1.838l-0.741-0.463C116.246,38.754,115.773,38.382,115.773,37.85
				L115.773,37.85L115.773,37.85z M114.866,56.365h-2.733c-0.623,0-0.645-0.022-0.467-0.533l1.401-3.867
				c0.244-0.667,0.466-1.201,0.533-1.312h0.044c0.134,0.269,0.333,0.867,0.511,1.4l1.201,3.623
				C115.555,56.275,115.51,56.365,114.866,56.365L114.866,56.365L114.866,56.365z M120.601,62.411
				c-0.956-0.111-1.245-0.444-1.89-2.356l-3.045-8.936c-0.333-0.978-0.688-2-0.978-2.978c-0.044-0.155-0.2-0.2-0.333-0.2
				c-0.245,0.289-0.623,0.688-1.156,0.845c0.067,0.355-0.067,0.777-0.378,1.577l-2.267,6.002c-0.934,2.488-1.557,3.935-1.957,4.957
				c-0.311,0.8-0.8,1.045-1.333,1.089l-0.733,0.065c-0.133,0.111-0.089,0.467,0.045,0.557c0.6-0.022,1.4-0.066,2.133-0.066
				c1.044,0.022,1.734,0.022,2.312,0.066c0.2-0.09,0.2-0.444,0.044-0.557l-0.733-0.065c-0.534-0.044-0.646-0.179-0.646-0.444
				c0-0.244,0.156-0.845,0.489-1.846l0.778-2.333c0.155-0.468,0.289-0.534,0.844-0.534h3.356c0.667,0,0.756,0.066,0.912,0.557
				l0.978,3.022c0.178,0.533,0.289,0.935,0.289,1.178c0,0.224-0.311,0.356-0.777,0.4l-0.646,0.065
				c-0.156,0.111-0.134,0.467,0.044,0.557c0.645-0.022,1.489-0.066,2.556-0.066c1,0,1.778,0.022,2.689,0.066
				c0.111-0.09,0.155-0.444,0-0.557L120.601,62.411L120.601,62.411L120.601,62.411z M122.126,41.388v-3.297
				c0-1.012,0.028-1.075,0.499-1.115l0.25-0.02l0.016-0.011c0.046-0.031,0.069-0.095,0.064-0.176
				c-0.002-0.032-0.015-0.141-0.091-0.179l-0.016-0.008h-0.018c-0.438,0.018-0.766,0.027-1.146,0.027
				c-0.397,0-0.716-0.009-1.165-0.027h-0.018l-0.017,0.008c-0.076,0.038-0.088,0.146-0.09,0.179
				c-0.005,0.081,0.018,0.144,0.064,0.175l0.016,0.011l0.25,0.02c0.472,0.04,0.5,0.103,0.5,1.115v3.297
				c0,0.997-0.023,1.049-0.502,1.106l-0.256,0.031l-0.018,0.017c-0.053,0.053-0.061,0.139-0.05,0.202
				c0.011,0.068,0.042,0.121,0.087,0.143l0.016,0.008l0.018-0.001c0.472-0.018,0.781-0.027,1.165-0.027
				c0.368,0,0.674,0.009,1.146,0.027l0.018,0.001l0.017-0.008c0.076-0.038,0.089-0.146,0.091-0.18
				c0.005-0.08-0.019-0.144-0.064-0.174l-0.263-0.039C122.15,42.437,122.126,42.385,122.126,41.388L122.126,41.388L122.126,41.388z
				 M130.57,36.47l0.007-0.026l-0.012-0.024c-0.034-0.069-0.129-0.077-0.169-0.077c-0.023,0-0.058,0.002-0.087,0.015l-0.023,0.009
				l-0.013,0.021c-0.119,0.207-0.168,0.223-0.661,0.223h-3.828c-0.415,0-0.6-0.021-0.639-0.229l-0.004-0.022l-0.016-0.016
				c-0.026-0.025-0.068-0.038-0.128-0.038c-0.022,0-0.097,0.002-0.138,0.029l-0.025,0.017l-0.005,0.03
				c-0.065,0.37-0.202,0.957-0.349,1.369l-0.01,0.029l0.014,0.027c0.056,0.111,0.246,0.166,0.347,0.089l0.015-0.011l0.007-0.017
				c0.094-0.214,0.183-0.417,0.399-0.615c0.205-0.188,0.667-0.213,1.091-0.213h0.51c0.207,0,0.207,0,0.207,0.225v4.141
				c0,1.003-0.058,1.047-0.509,1.087l-0.333,0.027l-0.032,0.01c-0.055,0.034-0.086,0.104-0.083,0.186
				c0.003,0.062,0.028,0.14,0.088,0.17l0.016,0.008h0.018c0.567-0.017,0.909-0.027,1.285-0.027c0.362,0,0.661,0.009,1.211,0.027
				h0.018l0.016-0.008c0.076-0.038,0.089-0.146,0.091-0.179c0.005-0.081-0.018-0.145-0.064-0.175l-0.33-0.039
				c-0.463-0.04-0.491-0.101-0.491-1.087v-4.152c0-0.094,0-0.183,0.015-0.198c0.016-0.016,0.116-0.016,0.183-0.016h0.657
				c0.496,0,0.833,0.071,1.032,0.218c0.088,0.064,0.163,0.299,0.203,0.627l0.002,0.021l0.013,0.016
				c0.034,0.041,0.097,0.066,0.168,0.066c0.088,0,0.161-0.038,0.191-0.098l0.01-0.019l-0.002-0.021
				C130.407,37.586,130.471,36.84,130.57,36.47L130.57,36.47L130.57,36.47z M134.359,48.275c-0.378-0.089-1.556-0.333-2.823-0.333
				c-3.356,0-5.557,1.044-7.046,2.6c-1.378,1.467-2,3.379-2,5.269c0,1.957,0.711,3.713,2.045,5.047
				c1.711,1.732,4.134,2.467,6.779,2.467c1.201,0,2.8-0.268,3.979-0.578c0.422-0.11,0.823-0.2,1.089-0.2
				c0.089-0.065,0.089-0.2,0.022-0.267c-0.4-0.155-0.533-0.688-0.533-1.577v-1.245c0-1.134,0.022-1.756,0.955-1.867l0.356-0.045
				c0.155-0.133,0.133-0.466-0.022-0.556c-0.733,0.045-1.49,0.065-2.356,0.065c-1.312,0-2.534-0.021-3.178-0.065
				c-0.156,0.065-0.178,0.467,0,0.556l0.978,0.111c1.378,0.154,1.445,0.289,1.445,2.156v0.89c0,0.711-0.111,1.11-0.222,1.267
				c-0.245,0.377-1.067,0.667-2.446,0.667c-4.467,0-6.668-3.356-6.668-7.624c0-3.334,1.89-6.402,6.202-6.402
				c2.267,0,3.934,0.756,4.557,3.156c0.133,0.135,0.533,0.111,0.6-0.065c-0.2-1.334-0.333-2.489-0.333-3.223
				C135.471,48.519,134.782,48.363,134.359,48.275L134.359,48.275L134.359,48.275z M137.605,36.94
				c0.047-0.041,0.072-0.108,0.067-0.179c-0.005-0.071-0.041-0.133-0.094-0.167l-0.019-0.012l-0.023,0.001
				c-0.658,0.039-1.046,0.039-1.743,0l-0.019-0.001l-0.017,0.009c-0.051,0.026-0.087,0.078-0.098,0.143
				c-0.012,0.075,0.011,0.152,0.061,0.202l0.018,0.018l0.191,0.021c0.18,0.022,0.292,0.066,0.324,0.091
				c-0.029,0.133-0.353,0.733-0.549,1.098l-0.042,0.079c-0.223,0.432-0.48,0.896-0.806,1.455c-0.244-0.441-0.482-0.926-0.713-1.396
				c-0.09-0.185-0.181-0.369-0.271-0.549c-0.067-0.134-0.276-0.607-0.28-0.681c0-0.019,0.042-0.056,0.329-0.097l0.144-0.022
				l0.017-0.017c0.05-0.051,0.071-0.142,0.052-0.222c-0.015-0.063-0.055-0.11-0.109-0.128l-0.014-0.004l-0.014,0.001
				c-0.227,0.018-0.559,0.027-0.985,0.027c-0.428,0-0.769-0.008-1.069-0.027l-0.021-0.001l-0.019,0.011
				c-0.045,0.026-0.077,0.074-0.087,0.137c-0.013,0.074,0.006,0.152,0.05,0.203l0.017,0.02l0.285,0.05
				c0.245,0.042,0.368,0.062,0.68,0.666l1.092,2.131c0.262,0.504,0.289,0.608,0.289,1.116v0.472c0,1.005-0.023,1.057-0.492,1.106
				l-0.312,0.03l-0.019,0.019c-0.052,0.053-0.06,0.139-0.05,0.203c0.011,0.068,0.043,0.12,0.088,0.142l0.016,0.008l0.019-0.001
				c0.499-0.018,0.823-0.027,1.211-0.027c0.375,0,0.708,0.01,1.257,0.027h0.018l0.016-0.008c0.045-0.022,0.077-0.075,0.088-0.143
				c0.01-0.063,0.002-0.15-0.051-0.202l-0.019-0.019l-0.377-0.03c-0.428-0.032-0.49-0.103-0.49-1.105v-0.482
				c0-0.694,0.02-0.762,0.425-1.464l0.583-1.009c0.053-0.091,0.104-0.18,0.153-0.265c0.364-0.636,0.627-1.096,1.021-1.165
				l0.279-0.049L137.605,36.94L137.605,36.94L137.605,36.94z M142.516,55.076c0-4.867,3-6.446,5.312-6.446
				c4.246,0,5.869,3.956,5.869,7.624c0,4.379-2.535,6.38-5.202,6.38C144.117,62.634,142.516,58.365,142.516,55.076L142.516,55.076
				L142.516,55.076z M140.293,55.787c0,4.001,2.979,7.535,7.913,7.535c4.29,0,7.714-3.268,7.714-7.758
				c0-3.912-2.579-7.624-7.714-7.624C143.628,47.941,140.293,51.342,140.293,55.787L140.293,55.787L140.293,55.787z M147.869,39.999
				c0,1.909-1.129,2.586-2.096,2.586c-1.911,0-2.421-1.935-2.421-3.078c0-1.93,1.154-2.615,2.143-2.615
				C147.248,36.893,147.869,38.566,147.869,39.999L147.869,39.999L147.869,39.999z M148.938,39.711c0-1.564-1.028-3.248-3.286-3.248
				c-1.92,0-3.369,1.437-3.369,3.341c0,1.595,1.158,3.21,3.369,3.21C147.526,43.015,148.938,41.594,148.938,39.711L148.938,39.711
				L148.938,39.711z M155.154,37.91l0.008-0.017v-0.019c-0.02-0.335-0.029-0.768-0.029-1.218v-0.089l-0.087,0.02
				c-0.112,0.025-0.683,0.025-1.233,0.025h-1.705c-0.348,0-0.657-0.008-1.069-0.027h-0.019l-0.018,0.008
				c-0.076,0.038-0.089,0.146-0.091,0.179c-0.005,0.081,0.019,0.145,0.065,0.176l0.178,0.029c0.471,0.057,0.494,0.108,0.494,1.097
				v3.334c0,0.979-0.023,1.03-0.494,1.087l-0.256,0.031l-0.019,0.017c-0.053,0.052-0.062,0.138-0.051,0.201
				c0.012,0.069,0.043,0.122,0.088,0.144l0.017,0.008l0.02-0.001c0.434-0.018,0.746-0.027,1.154-0.027
				c0.375,0,0.694,0.01,1.229,0.027h0.019l0.016-0.008c0.062-0.03,0.088-0.113,0.092-0.18c0.004-0.08-0.02-0.144-0.066-0.174
				l-0.347-0.039c-0.472-0.04-0.501-0.101-0.501-1.087v-1.288c0-0.179,0-0.179,0.234-0.179h0.631c0.324,0,0.566,0.007,0.691,0.043
				c0.129,0.042,0.199,0.126,0.248,0.302l0.099,0.383l0.017,0.015c0.092,0.079,0.289,0.074,0.348-0.015l0.013-0.018v-0.021
				c0-0.096-0.009-0.22-0.017-0.357c-0.01-0.168-0.021-0.358-0.021-0.541c0-0.188,0.012-0.386,0.021-0.561
				c0.008-0.144,0.017-0.274,0.017-0.375v-0.021l-0.013-0.018c-0.045-0.066-0.139-0.074-0.176-0.074
				c-0.078,0-0.145,0.025-0.18,0.067l-0.098,0.4c-0.053,0.225-0.114,0.247-0.186,0.272c-0.099,0.033-0.384,0.052-0.765,0.052h-0.631
				c-0.234,0-0.234,0-0.234-0.179V37.34c0-0.299,0-0.299,0.207-0.299h0.565c0.383,0,0.685,0,0.88,0.054
				c0.397,0.104,0.517,0.369,0.597,0.823l0.004,0.025l0.02,0.017c0.037,0.031,0.086,0.048,0.141,0.048
				C155.033,38.007,155.12,37.977,155.154,37.91L155.154,37.91L155.154,37.91z"/>
		</g>
	</g>
</g>
</svg>
